<mxfile host="Electron" agent="Mozilla/5.0 (Windows NT 10.0; Win64; x64) AppleWebKit/537.36 (KHTML, like Gecko) draw.io/27.0.9 Chrome/134.0.6998.205 Electron/35.4.0 Safari/537.36" version="27.0.9">
  <diagram name="Page-1" id="xy7IFcen9BNwfmhMjGUM">
    <mxGraphModel dx="3341" dy="2731" grid="1" gridSize="10" guides="1" tooltips="1" connect="1" arrows="1" fold="1" page="1" pageScale="1" pageWidth="850" pageHeight="1100" math="0" shadow="0">
      <root>
        <mxCell id="0" />
        <mxCell id="1" parent="0" />
        <mxCell id="St-BTR9ovAVdQjKWnuXi-1" value="&lt;font style=&quot;font-size: 18px;&quot;&gt;Crews&lt;/font&gt;" style="shape=table;startSize=30;container=1;collapsible=1;childLayout=tableLayout;fixedRows=1;rowLines=0;fontStyle=1;align=center;resizeLast=1;html=1;strokeWidth=2;fillColor=#f8cecc;strokeColor=#b85450;" vertex="1" parent="1">
          <mxGeometry x="-550" y="-80" width="180" height="210" as="geometry" />
        </mxCell>
        <mxCell id="St-BTR9ovAVdQjKWnuXi-2" value="" style="shape=tableRow;horizontal=0;startSize=0;swimlaneHead=0;swimlaneBody=0;fillColor=none;collapsible=0;dropTarget=0;points=[[0,0.5],[1,0.5]];portConstraint=eastwest;top=0;left=0;right=0;bottom=1;" vertex="1" parent="St-BTR9ovAVdQjKWnuXi-1">
          <mxGeometry y="30" width="180" height="30" as="geometry" />
        </mxCell>
        <mxCell id="St-BTR9ovAVdQjKWnuXi-3" value="PK" style="shape=partialRectangle;connectable=0;fillColor=none;top=0;left=0;bottom=0;right=0;fontStyle=1;overflow=hidden;whiteSpace=wrap;html=1;" vertex="1" parent="St-BTR9ovAVdQjKWnuXi-2">
          <mxGeometry width="30" height="30" as="geometry">
            <mxRectangle width="30" height="30" as="alternateBounds" />
          </mxGeometry>
        </mxCell>
        <mxCell id="St-BTR9ovAVdQjKWnuXi-4" value="Pilot, Aircraft-ID" style="shape=partialRectangle;connectable=0;fillColor=none;top=0;left=0;bottom=0;right=0;align=left;spacingLeft=6;fontStyle=5;overflow=hidden;whiteSpace=wrap;html=1;" vertex="1" parent="St-BTR9ovAVdQjKWnuXi-2">
          <mxGeometry x="30" width="150" height="30" as="geometry">
            <mxRectangle width="150" height="30" as="alternateBounds" />
          </mxGeometry>
        </mxCell>
        <mxCell id="St-BTR9ovAVdQjKWnuXi-5" value="" style="shape=tableRow;horizontal=0;startSize=0;swimlaneHead=0;swimlaneBody=0;fillColor=none;collapsible=0;dropTarget=0;points=[[0,0.5],[1,0.5]];portConstraint=eastwest;top=0;left=0;right=0;bottom=0;" vertex="1" parent="St-BTR9ovAVdQjKWnuXi-1">
          <mxGeometry y="60" width="180" height="30" as="geometry" />
        </mxCell>
        <mxCell id="St-BTR9ovAVdQjKWnuXi-6" value="" style="shape=partialRectangle;connectable=0;fillColor=none;top=0;left=0;bottom=0;right=0;editable=1;overflow=hidden;whiteSpace=wrap;html=1;" vertex="1" parent="St-BTR9ovAVdQjKWnuXi-5">
          <mxGeometry width="30" height="30" as="geometry">
            <mxRectangle width="30" height="30" as="alternateBounds" />
          </mxGeometry>
        </mxCell>
        <mxCell id="St-BTR9ovAVdQjKWnuXi-7" value="Pilot" style="shape=partialRectangle;connectable=0;fillColor=none;top=0;left=0;bottom=0;right=0;align=left;spacingLeft=6;overflow=hidden;whiteSpace=wrap;html=1;strokeWidth=3;" vertex="1" parent="St-BTR9ovAVdQjKWnuXi-5">
          <mxGeometry x="30" width="150" height="30" as="geometry">
            <mxRectangle width="150" height="30" as="alternateBounds" />
          </mxGeometry>
        </mxCell>
        <mxCell id="St-BTR9ovAVdQjKWnuXi-8" value="" style="shape=tableRow;horizontal=0;startSize=0;swimlaneHead=0;swimlaneBody=0;fillColor=none;collapsible=0;dropTarget=0;points=[[0,0.5],[1,0.5]];portConstraint=eastwest;top=0;left=0;right=0;bottom=0;" vertex="1" parent="St-BTR9ovAVdQjKWnuXi-1">
          <mxGeometry y="90" width="180" height="30" as="geometry" />
        </mxCell>
        <mxCell id="St-BTR9ovAVdQjKWnuXi-9" value="" style="shape=partialRectangle;connectable=0;fillColor=none;top=0;left=0;bottom=0;right=0;editable=1;overflow=hidden;whiteSpace=wrap;html=1;" vertex="1" parent="St-BTR9ovAVdQjKWnuXi-8">
          <mxGeometry width="30" height="30" as="geometry">
            <mxRectangle width="30" height="30" as="alternateBounds" />
          </mxGeometry>
        </mxCell>
        <mxCell id="St-BTR9ovAVdQjKWnuXi-10" value="Hostes1" style="shape=partialRectangle;connectable=0;fillColor=none;top=0;left=0;bottom=0;right=0;align=left;spacingLeft=6;overflow=hidden;whiteSpace=wrap;html=1;" vertex="1" parent="St-BTR9ovAVdQjKWnuXi-8">
          <mxGeometry x="30" width="150" height="30" as="geometry">
            <mxRectangle width="150" height="30" as="alternateBounds" />
          </mxGeometry>
        </mxCell>
        <mxCell id="St-BTR9ovAVdQjKWnuXi-11" value="" style="shape=tableRow;horizontal=0;startSize=0;swimlaneHead=0;swimlaneBody=0;fillColor=none;collapsible=0;dropTarget=0;points=[[0,0.5],[1,0.5]];portConstraint=eastwest;top=0;left=0;right=0;bottom=0;" vertex="1" parent="St-BTR9ovAVdQjKWnuXi-1">
          <mxGeometry y="120" width="180" height="30" as="geometry" />
        </mxCell>
        <mxCell id="St-BTR9ovAVdQjKWnuXi-12" value="" style="shape=partialRectangle;connectable=0;fillColor=none;top=0;left=0;bottom=0;right=0;editable=1;overflow=hidden;whiteSpace=wrap;html=1;" vertex="1" parent="St-BTR9ovAVdQjKWnuXi-11">
          <mxGeometry width="30" height="30" as="geometry">
            <mxRectangle width="30" height="30" as="alternateBounds" />
          </mxGeometry>
        </mxCell>
        <mxCell id="St-BTR9ovAVdQjKWnuXi-13" value="Hostes2" style="shape=partialRectangle;connectable=0;fillColor=none;top=0;left=0;bottom=0;right=0;align=left;spacingLeft=6;overflow=hidden;whiteSpace=wrap;html=1;" vertex="1" parent="St-BTR9ovAVdQjKWnuXi-11">
          <mxGeometry x="30" width="150" height="30" as="geometry">
            <mxRectangle width="150" height="30" as="alternateBounds" />
          </mxGeometry>
        </mxCell>
        <mxCell id="St-BTR9ovAVdQjKWnuXi-14" value="" style="shape=tableRow;horizontal=0;startSize=0;swimlaneHead=0;swimlaneBody=0;fillColor=none;collapsible=0;dropTarget=0;points=[[0,0.5],[1,0.5]];portConstraint=eastwest;top=0;left=0;right=0;bottom=0;" vertex="1" parent="St-BTR9ovAVdQjKWnuXi-1">
          <mxGeometry y="150" width="180" height="30" as="geometry" />
        </mxCell>
        <mxCell id="St-BTR9ovAVdQjKWnuXi-15" value="" style="shape=partialRectangle;connectable=0;fillColor=none;top=0;left=0;bottom=0;right=0;editable=1;overflow=hidden;whiteSpace=wrap;html=1;" vertex="1" parent="St-BTR9ovAVdQjKWnuXi-14">
          <mxGeometry width="30" height="30" as="geometry">
            <mxRectangle width="30" height="30" as="alternateBounds" />
          </mxGeometry>
        </mxCell>
        <mxCell id="St-BTR9ovAVdQjKWnuXi-16" value="Assistant" style="shape=partialRectangle;connectable=0;fillColor=none;top=0;left=0;bottom=0;right=0;align=left;spacingLeft=6;overflow=hidden;whiteSpace=wrap;html=1;strokeWidth=3;" vertex="1" parent="St-BTR9ovAVdQjKWnuXi-14">
          <mxGeometry x="30" width="150" height="30" as="geometry">
            <mxRectangle width="150" height="30" as="alternateBounds" />
          </mxGeometry>
        </mxCell>
        <mxCell id="St-BTR9ovAVdQjKWnuXi-17" value="" style="shape=tableRow;horizontal=0;startSize=0;swimlaneHead=0;swimlaneBody=0;fillColor=none;collapsible=0;dropTarget=0;points=[[0,0.5],[1,0.5]];portConstraint=eastwest;top=0;left=0;right=0;bottom=0;" vertex="1" parent="St-BTR9ovAVdQjKWnuXi-1">
          <mxGeometry y="180" width="180" height="30" as="geometry" />
        </mxCell>
        <mxCell id="St-BTR9ovAVdQjKWnuXi-18" value="" style="shape=partialRectangle;connectable=0;fillColor=none;top=0;left=0;bottom=0;right=0;editable=1;overflow=hidden;whiteSpace=wrap;html=1;" vertex="1" parent="St-BTR9ovAVdQjKWnuXi-17">
          <mxGeometry width="30" height="30" as="geometry">
            <mxRectangle width="30" height="30" as="alternateBounds" />
          </mxGeometry>
        </mxCell>
        <mxCell id="St-BTR9ovAVdQjKWnuXi-19" value="&lt;font style=&quot;color: rgb(0, 0, 153);&quot;&gt;&lt;b&gt;Aircraft-ID&lt;/b&gt;&lt;/font&gt;" style="shape=partialRectangle;connectable=0;fillColor=none;top=0;left=0;bottom=0;right=0;align=left;spacingLeft=6;overflow=hidden;whiteSpace=wrap;html=1;strokeWidth=3;" vertex="1" parent="St-BTR9ovAVdQjKWnuXi-17">
          <mxGeometry x="30" width="150" height="30" as="geometry">
            <mxRectangle width="150" height="30" as="alternateBounds" />
          </mxGeometry>
        </mxCell>
        <mxCell id="St-BTR9ovAVdQjKWnuXi-20" value="&lt;font style=&quot;font-size: 18px;&quot;&gt;Aircrafts&lt;/font&gt;" style="shape=table;startSize=30;container=1;collapsible=1;childLayout=tableLayout;fixedRows=1;rowLines=0;fontStyle=1;align=center;resizeLast=1;html=1;strokeWidth=2;fillColor=#fff2cc;strokeColor=#d6b656;" vertex="1" parent="1">
          <mxGeometry x="-247.5" y="-135" width="180" height="180" as="geometry" />
        </mxCell>
        <mxCell id="St-BTR9ovAVdQjKWnuXi-21" value="" style="shape=tableRow;horizontal=0;startSize=0;swimlaneHead=0;swimlaneBody=0;fillColor=none;collapsible=0;dropTarget=0;points=[[0,0.5],[1,0.5]];portConstraint=eastwest;top=0;left=0;right=0;bottom=1;" vertex="1" parent="St-BTR9ovAVdQjKWnuXi-20">
          <mxGeometry y="30" width="180" height="30" as="geometry" />
        </mxCell>
        <mxCell id="St-BTR9ovAVdQjKWnuXi-22" value="PK" style="shape=partialRectangle;connectable=0;fillColor=none;top=0;left=0;bottom=0;right=0;fontStyle=1;overflow=hidden;whiteSpace=wrap;html=1;" vertex="1" parent="St-BTR9ovAVdQjKWnuXi-21">
          <mxGeometry width="30" height="30" as="geometry">
            <mxRectangle width="30" height="30" as="alternateBounds" />
          </mxGeometry>
        </mxCell>
        <mxCell id="St-BTR9ovAVdQjKWnuXi-23" value="Aircraft-ID" style="shape=partialRectangle;connectable=0;fillColor=none;top=0;left=0;bottom=0;right=0;align=left;spacingLeft=6;fontStyle=5;overflow=hidden;whiteSpace=wrap;html=1;" vertex="1" parent="St-BTR9ovAVdQjKWnuXi-21">
          <mxGeometry x="30" width="150" height="30" as="geometry">
            <mxRectangle width="150" height="30" as="alternateBounds" />
          </mxGeometry>
        </mxCell>
        <mxCell id="St-BTR9ovAVdQjKWnuXi-24" value="" style="shape=tableRow;horizontal=0;startSize=0;swimlaneHead=0;swimlaneBody=0;fillColor=none;collapsible=0;dropTarget=0;points=[[0,0.5],[1,0.5]];portConstraint=eastwest;top=0;left=0;right=0;bottom=0;" vertex="1" parent="St-BTR9ovAVdQjKWnuXi-20">
          <mxGeometry y="60" width="180" height="30" as="geometry" />
        </mxCell>
        <mxCell id="St-BTR9ovAVdQjKWnuXi-25" value="" style="shape=partialRectangle;connectable=0;fillColor=none;top=0;left=0;bottom=0;right=0;editable=1;overflow=hidden;whiteSpace=wrap;html=1;" vertex="1" parent="St-BTR9ovAVdQjKWnuXi-24">
          <mxGeometry width="30" height="30" as="geometry">
            <mxRectangle width="30" height="30" as="alternateBounds" />
          </mxGeometry>
        </mxCell>
        <mxCell id="St-BTR9ovAVdQjKWnuXi-26" value="Aircraft-ID" style="shape=partialRectangle;connectable=0;fillColor=none;top=0;left=0;bottom=0;right=0;align=left;spacingLeft=6;overflow=hidden;whiteSpace=wrap;html=1;" vertex="1" parent="St-BTR9ovAVdQjKWnuXi-24">
          <mxGeometry x="30" width="150" height="30" as="geometry">
            <mxRectangle width="150" height="30" as="alternateBounds" />
          </mxGeometry>
        </mxCell>
        <mxCell id="St-BTR9ovAVdQjKWnuXi-27" value="" style="shape=tableRow;horizontal=0;startSize=0;swimlaneHead=0;swimlaneBody=0;fillColor=none;collapsible=0;dropTarget=0;points=[[0,0.5],[1,0.5]];portConstraint=eastwest;top=0;left=0;right=0;bottom=0;" vertex="1" parent="St-BTR9ovAVdQjKWnuXi-20">
          <mxGeometry y="90" width="180" height="30" as="geometry" />
        </mxCell>
        <mxCell id="St-BTR9ovAVdQjKWnuXi-28" value="" style="shape=partialRectangle;connectable=0;fillColor=none;top=0;left=0;bottom=0;right=0;editable=1;overflow=hidden;whiteSpace=wrap;html=1;" vertex="1" parent="St-BTR9ovAVdQjKWnuXi-27">
          <mxGeometry width="30" height="30" as="geometry">
            <mxRectangle width="30" height="30" as="alternateBounds" />
          </mxGeometry>
        </mxCell>
        <mxCell id="St-BTR9ovAVdQjKWnuXi-29" value="Capacity" style="shape=partialRectangle;connectable=0;fillColor=none;top=0;left=0;bottom=0;right=0;align=left;spacingLeft=6;overflow=hidden;whiteSpace=wrap;html=1;" vertex="1" parent="St-BTR9ovAVdQjKWnuXi-27">
          <mxGeometry x="30" width="150" height="30" as="geometry">
            <mxRectangle width="150" height="30" as="alternateBounds" />
          </mxGeometry>
        </mxCell>
        <mxCell id="St-BTR9ovAVdQjKWnuXi-30" value="" style="shape=tableRow;horizontal=0;startSize=0;swimlaneHead=0;swimlaneBody=0;fillColor=none;collapsible=0;dropTarget=0;points=[[0,0.5],[1,0.5]];portConstraint=eastwest;top=0;left=0;right=0;bottom=0;" vertex="1" parent="St-BTR9ovAVdQjKWnuXi-20">
          <mxGeometry y="120" width="180" height="30" as="geometry" />
        </mxCell>
        <mxCell id="St-BTR9ovAVdQjKWnuXi-31" value="" style="shape=partialRectangle;connectable=0;fillColor=none;top=0;left=0;bottom=0;right=0;editable=1;overflow=hidden;whiteSpace=wrap;html=1;" vertex="1" parent="St-BTR9ovAVdQjKWnuXi-30">
          <mxGeometry width="30" height="30" as="geometry">
            <mxRectangle width="30" height="30" as="alternateBounds" />
          </mxGeometry>
        </mxCell>
        <mxCell id="St-BTR9ovAVdQjKWnuXi-32" value="Model" style="shape=partialRectangle;connectable=0;fillColor=none;top=0;left=0;bottom=0;right=0;align=left;spacingLeft=6;overflow=hidden;whiteSpace=wrap;html=1;" vertex="1" parent="St-BTR9ovAVdQjKWnuXi-30">
          <mxGeometry x="30" width="150" height="30" as="geometry">
            <mxRectangle width="150" height="30" as="alternateBounds" />
          </mxGeometry>
        </mxCell>
        <mxCell id="St-BTR9ovAVdQjKWnuXi-33" value="" style="shape=tableRow;horizontal=0;startSize=0;swimlaneHead=0;swimlaneBody=0;fillColor=none;collapsible=0;dropTarget=0;points=[[0,0.5],[1,0.5]];portConstraint=eastwest;top=0;left=0;right=0;bottom=0;" vertex="1" parent="St-BTR9ovAVdQjKWnuXi-20">
          <mxGeometry y="150" width="180" height="30" as="geometry" />
        </mxCell>
        <mxCell id="St-BTR9ovAVdQjKWnuXi-34" value="" style="shape=partialRectangle;connectable=0;fillColor=none;top=0;left=0;bottom=0;right=0;editable=1;overflow=hidden;whiteSpace=wrap;html=1;" vertex="1" parent="St-BTR9ovAVdQjKWnuXi-33">
          <mxGeometry width="30" height="30" as="geometry">
            <mxRectangle width="30" height="30" as="alternateBounds" />
          </mxGeometry>
        </mxCell>
        <mxCell id="St-BTR9ovAVdQjKWnuXi-35" value="&lt;font style=&quot;color: rgb(0, 0, 153);&quot;&gt;&lt;b&gt;Airline-ID&lt;/b&gt;&lt;/font&gt;" style="shape=partialRectangle;connectable=0;fillColor=none;top=0;left=0;bottom=0;right=0;align=left;spacingLeft=6;overflow=hidden;whiteSpace=wrap;html=1;" vertex="1" parent="St-BTR9ovAVdQjKWnuXi-33">
          <mxGeometry x="30" width="150" height="30" as="geometry">
            <mxRectangle width="150" height="30" as="alternateBounds" />
          </mxGeometry>
        </mxCell>
        <mxCell id="St-BTR9ovAVdQjKWnuXi-36" value="&lt;font style=&quot;font-size: 18px;&quot;&gt;Airlines&lt;/font&gt;" style="shape=table;startSize=30;container=1;collapsible=1;childLayout=tableLayout;fixedRows=1;rowLines=0;fontStyle=1;align=center;resizeLast=1;html=1;strokeWidth=2;fillColor=#e1d5e7;strokeColor=#9673a6;" vertex="1" parent="1">
          <mxGeometry x="-7.5" y="45" width="180" height="180" as="geometry" />
        </mxCell>
        <mxCell id="St-BTR9ovAVdQjKWnuXi-37" value="" style="shape=tableRow;horizontal=0;startSize=0;swimlaneHead=0;swimlaneBody=0;fillColor=none;collapsible=0;dropTarget=0;points=[[0,0.5],[1,0.5]];portConstraint=eastwest;top=0;left=0;right=0;bottom=1;" vertex="1" parent="St-BTR9ovAVdQjKWnuXi-36">
          <mxGeometry y="30" width="180" height="30" as="geometry" />
        </mxCell>
        <mxCell id="St-BTR9ovAVdQjKWnuXi-38" value="PK" style="shape=partialRectangle;connectable=0;fillColor=none;top=0;left=0;bottom=0;right=0;fontStyle=1;overflow=hidden;whiteSpace=wrap;html=1;" vertex="1" parent="St-BTR9ovAVdQjKWnuXi-37">
          <mxGeometry width="30" height="30" as="geometry">
            <mxRectangle width="30" height="30" as="alternateBounds" />
          </mxGeometry>
        </mxCell>
        <mxCell id="St-BTR9ovAVdQjKWnuXi-39" value="Airline-ID" style="shape=partialRectangle;connectable=0;fillColor=none;top=0;left=0;bottom=0;right=0;align=left;spacingLeft=6;fontStyle=5;overflow=hidden;whiteSpace=wrap;html=1;" vertex="1" parent="St-BTR9ovAVdQjKWnuXi-37">
          <mxGeometry x="30" width="150" height="30" as="geometry">
            <mxRectangle width="150" height="30" as="alternateBounds" />
          </mxGeometry>
        </mxCell>
        <mxCell id="St-BTR9ovAVdQjKWnuXi-40" value="" style="shape=tableRow;horizontal=0;startSize=0;swimlaneHead=0;swimlaneBody=0;fillColor=none;collapsible=0;dropTarget=0;points=[[0,0.5],[1,0.5]];portConstraint=eastwest;top=0;left=0;right=0;bottom=0;" vertex="1" parent="St-BTR9ovAVdQjKWnuXi-36">
          <mxGeometry y="60" width="180" height="30" as="geometry" />
        </mxCell>
        <mxCell id="St-BTR9ovAVdQjKWnuXi-41" value="" style="shape=partialRectangle;connectable=0;fillColor=none;top=0;left=0;bottom=0;right=0;editable=1;overflow=hidden;whiteSpace=wrap;html=1;" vertex="1" parent="St-BTR9ovAVdQjKWnuXi-40">
          <mxGeometry width="30" height="30" as="geometry">
            <mxRectangle width="30" height="30" as="alternateBounds" />
          </mxGeometry>
        </mxCell>
        <mxCell id="St-BTR9ovAVdQjKWnuXi-42" value="Airline-ID" style="shape=partialRectangle;connectable=0;fillColor=none;top=0;left=0;bottom=0;right=0;align=left;spacingLeft=6;overflow=hidden;whiteSpace=wrap;html=1;strokeWidth=3;" vertex="1" parent="St-BTR9ovAVdQjKWnuXi-40">
          <mxGeometry x="30" width="150" height="30" as="geometry">
            <mxRectangle width="150" height="30" as="alternateBounds" />
          </mxGeometry>
        </mxCell>
        <mxCell id="St-BTR9ovAVdQjKWnuXi-43" value="" style="shape=tableRow;horizontal=0;startSize=0;swimlaneHead=0;swimlaneBody=0;fillColor=none;collapsible=0;dropTarget=0;points=[[0,0.5],[1,0.5]];portConstraint=eastwest;top=0;left=0;right=0;bottom=0;" vertex="1" parent="St-BTR9ovAVdQjKWnuXi-36">
          <mxGeometry y="90" width="180" height="30" as="geometry" />
        </mxCell>
        <mxCell id="St-BTR9ovAVdQjKWnuXi-44" value="" style="shape=partialRectangle;connectable=0;fillColor=none;top=0;left=0;bottom=0;right=0;editable=1;overflow=hidden;whiteSpace=wrap;html=1;" vertex="1" parent="St-BTR9ovAVdQjKWnuXi-43">
          <mxGeometry width="30" height="30" as="geometry">
            <mxRectangle width="30" height="30" as="alternateBounds" />
          </mxGeometry>
        </mxCell>
        <mxCell id="St-BTR9ovAVdQjKWnuXi-45" value="Address" style="shape=partialRectangle;connectable=0;fillColor=none;top=0;left=0;bottom=0;right=0;align=left;spacingLeft=6;overflow=hidden;whiteSpace=wrap;html=1;" vertex="1" parent="St-BTR9ovAVdQjKWnuXi-43">
          <mxGeometry x="30" width="150" height="30" as="geometry">
            <mxRectangle width="150" height="30" as="alternateBounds" />
          </mxGeometry>
        </mxCell>
        <mxCell id="St-BTR9ovAVdQjKWnuXi-46" value="" style="shape=tableRow;horizontal=0;startSize=0;swimlaneHead=0;swimlaneBody=0;fillColor=none;collapsible=0;dropTarget=0;points=[[0,0.5],[1,0.5]];portConstraint=eastwest;top=0;left=0;right=0;bottom=0;" vertex="1" parent="St-BTR9ovAVdQjKWnuXi-36">
          <mxGeometry y="120" width="180" height="30" as="geometry" />
        </mxCell>
        <mxCell id="St-BTR9ovAVdQjKWnuXi-47" value="" style="shape=partialRectangle;connectable=0;fillColor=none;top=0;left=0;bottom=0;right=0;editable=1;overflow=hidden;whiteSpace=wrap;html=1;" vertex="1" parent="St-BTR9ovAVdQjKWnuXi-46">
          <mxGeometry width="30" height="30" as="geometry">
            <mxRectangle width="30" height="30" as="alternateBounds" />
          </mxGeometry>
        </mxCell>
        <mxCell id="St-BTR9ovAVdQjKWnuXi-48" value="Contact-Person" style="shape=partialRectangle;connectable=0;fillColor=none;top=0;left=0;bottom=0;right=0;align=left;spacingLeft=6;overflow=hidden;whiteSpace=wrap;html=1;" vertex="1" parent="St-BTR9ovAVdQjKWnuXi-46">
          <mxGeometry x="30" width="150" height="30" as="geometry">
            <mxRectangle width="150" height="30" as="alternateBounds" />
          </mxGeometry>
        </mxCell>
        <mxCell id="St-BTR9ovAVdQjKWnuXi-49" value="" style="shape=tableRow;horizontal=0;startSize=0;swimlaneHead=0;swimlaneBody=0;fillColor=none;collapsible=0;dropTarget=0;points=[[0,0.5],[1,0.5]];portConstraint=eastwest;top=0;left=0;right=0;bottom=0;" vertex="1" parent="St-BTR9ovAVdQjKWnuXi-36">
          <mxGeometry y="150" width="180" height="30" as="geometry" />
        </mxCell>
        <mxCell id="St-BTR9ovAVdQjKWnuXi-50" value="" style="shape=partialRectangle;connectable=0;fillColor=none;top=0;left=0;bottom=0;right=0;editable=1;overflow=hidden;whiteSpace=wrap;html=1;" vertex="1" parent="St-BTR9ovAVdQjKWnuXi-49">
          <mxGeometry width="30" height="30" as="geometry">
            <mxRectangle width="30" height="30" as="alternateBounds" />
          </mxGeometry>
        </mxCell>
        <mxCell id="St-BTR9ovAVdQjKWnuXi-51" value="Name" style="shape=partialRectangle;connectable=0;fillColor=none;top=0;left=0;bottom=0;right=0;align=left;spacingLeft=6;overflow=hidden;whiteSpace=wrap;html=1;strokeWidth=3;" vertex="1" parent="St-BTR9ovAVdQjKWnuXi-49">
          <mxGeometry x="30" width="150" height="30" as="geometry">
            <mxRectangle width="150" height="30" as="alternateBounds" />
          </mxGeometry>
        </mxCell>
        <mxCell id="St-BTR9ovAVdQjKWnuXi-52" value="&lt;span style=&quot;font-size: 18px;&quot;&gt;Airline-Numbers&lt;/span&gt;" style="shape=table;startSize=30;container=1;collapsible=1;childLayout=tableLayout;fixedRows=1;rowLines=0;fontStyle=1;align=center;resizeLast=1;html=1;strokeWidth=2;fillColor=#dae8fc;strokeColor=#6c8ebf;" vertex="1" parent="1">
          <mxGeometry x="-262.5" y="155" width="180" height="120" as="geometry" />
        </mxCell>
        <mxCell id="St-BTR9ovAVdQjKWnuXi-53" value="" style="shape=tableRow;horizontal=0;startSize=0;swimlaneHead=0;swimlaneBody=0;fillColor=none;collapsible=0;dropTarget=0;points=[[0,0.5],[1,0.5]];portConstraint=eastwest;top=0;left=0;right=0;bottom=1;" vertex="1" parent="St-BTR9ovAVdQjKWnuXi-52">
          <mxGeometry y="30" width="180" height="30" as="geometry" />
        </mxCell>
        <mxCell id="St-BTR9ovAVdQjKWnuXi-54" value="PK" style="shape=partialRectangle;connectable=0;fillColor=none;top=0;left=0;bottom=0;right=0;fontStyle=1;overflow=hidden;whiteSpace=wrap;html=1;" vertex="1" parent="St-BTR9ovAVdQjKWnuXi-53">
          <mxGeometry width="30" height="30" as="geometry">
            <mxRectangle width="30" height="30" as="alternateBounds" />
          </mxGeometry>
        </mxCell>
        <mxCell id="St-BTR9ovAVdQjKWnuXi-55" value="Airline-ID, Number" style="shape=partialRectangle;connectable=0;fillColor=none;top=0;left=0;bottom=0;right=0;align=left;spacingLeft=6;fontStyle=5;overflow=hidden;whiteSpace=wrap;html=1;" vertex="1" parent="St-BTR9ovAVdQjKWnuXi-53">
          <mxGeometry x="30" width="150" height="30" as="geometry">
            <mxRectangle width="150" height="30" as="alternateBounds" />
          </mxGeometry>
        </mxCell>
        <mxCell id="St-BTR9ovAVdQjKWnuXi-56" value="" style="shape=tableRow;horizontal=0;startSize=0;swimlaneHead=0;swimlaneBody=0;fillColor=none;collapsible=0;dropTarget=0;points=[[0,0.5],[1,0.5]];portConstraint=eastwest;top=0;left=0;right=0;bottom=0;" vertex="1" parent="St-BTR9ovAVdQjKWnuXi-52">
          <mxGeometry y="60" width="180" height="30" as="geometry" />
        </mxCell>
        <mxCell id="St-BTR9ovAVdQjKWnuXi-57" value="" style="shape=partialRectangle;connectable=0;fillColor=none;top=0;left=0;bottom=0;right=0;editable=1;overflow=hidden;whiteSpace=wrap;html=1;" vertex="1" parent="St-BTR9ovAVdQjKWnuXi-56">
          <mxGeometry width="30" height="30" as="geometry">
            <mxRectangle width="30" height="30" as="alternateBounds" />
          </mxGeometry>
        </mxCell>
        <mxCell id="St-BTR9ovAVdQjKWnuXi-58" value="Number" style="shape=partialRectangle;connectable=0;fillColor=none;top=0;left=0;bottom=0;right=0;align=left;spacingLeft=6;overflow=hidden;whiteSpace=wrap;html=1;" vertex="1" parent="St-BTR9ovAVdQjKWnuXi-56">
          <mxGeometry x="30" width="150" height="30" as="geometry">
            <mxRectangle width="150" height="30" as="alternateBounds" />
          </mxGeometry>
        </mxCell>
        <mxCell id="St-BTR9ovAVdQjKWnuXi-59" value="" style="shape=tableRow;horizontal=0;startSize=0;swimlaneHead=0;swimlaneBody=0;fillColor=none;collapsible=0;dropTarget=0;points=[[0,0.5],[1,0.5]];portConstraint=eastwest;top=0;left=0;right=0;bottom=0;" vertex="1" parent="St-BTR9ovAVdQjKWnuXi-52">
          <mxGeometry y="90" width="180" height="30" as="geometry" />
        </mxCell>
        <mxCell id="St-BTR9ovAVdQjKWnuXi-60" value="" style="shape=partialRectangle;connectable=0;fillColor=none;top=0;left=0;bottom=0;right=0;editable=1;overflow=hidden;whiteSpace=wrap;html=1;" vertex="1" parent="St-BTR9ovAVdQjKWnuXi-59">
          <mxGeometry width="30" height="30" as="geometry">
            <mxRectangle width="30" height="30" as="alternateBounds" />
          </mxGeometry>
        </mxCell>
        <mxCell id="St-BTR9ovAVdQjKWnuXi-61" value="&lt;font style=&quot;color: rgb(0, 0, 153);&quot;&gt;&lt;b&gt;Airline-ID&lt;/b&gt;&lt;/font&gt;" style="shape=partialRectangle;connectable=0;fillColor=none;top=0;left=0;bottom=0;right=0;align=left;spacingLeft=6;overflow=hidden;whiteSpace=wrap;html=1;" vertex="1" parent="St-BTR9ovAVdQjKWnuXi-59">
          <mxGeometry x="30" width="150" height="30" as="geometry">
            <mxRectangle width="150" height="30" as="alternateBounds" />
          </mxGeometry>
        </mxCell>
        <mxCell id="St-BTR9ovAVdQjKWnuXi-62" style="edgeStyle=orthogonalEdgeStyle;rounded=0;orthogonalLoop=1;jettySize=auto;html=1;entryX=-0.021;entryY=1.021;entryDx=0;entryDy=0;entryPerimeter=0;" edge="1" parent="1" source="St-BTR9ovAVdQjKWnuXi-17" target="St-BTR9ovAVdQjKWnuXi-21">
          <mxGeometry relative="1" as="geometry">
            <Array as="points">
              <mxPoint x="-300" y="115" />
              <mxPoint x="-300" y="-74" />
            </Array>
          </mxGeometry>
        </mxCell>
        <mxCell id="St-BTR9ovAVdQjKWnuXi-63" value="&lt;font style=&quot;font-size: 18px;&quot;&gt;Employees&lt;/font&gt;" style="shape=table;startSize=30;container=1;collapsible=1;childLayout=tableLayout;fixedRows=1;rowLines=0;fontStyle=1;align=center;resizeLast=1;html=1;strokeWidth=2;fillColor=#d5e8d4;strokeColor=#82b366;" vertex="1" parent="1">
          <mxGeometry x="272.5" y="-295" width="215" height="360" as="geometry" />
        </mxCell>
        <mxCell id="St-BTR9ovAVdQjKWnuXi-64" value="" style="shape=tableRow;horizontal=0;startSize=0;swimlaneHead=0;swimlaneBody=0;fillColor=none;collapsible=0;dropTarget=0;points=[[0,0.5],[1,0.5]];portConstraint=eastwest;top=0;left=0;right=0;bottom=1;" vertex="1" parent="St-BTR9ovAVdQjKWnuXi-63">
          <mxGeometry y="30" width="215" height="30" as="geometry" />
        </mxCell>
        <mxCell id="St-BTR9ovAVdQjKWnuXi-65" value="PK" style="shape=partialRectangle;connectable=0;fillColor=none;top=0;left=0;bottom=0;right=0;fontStyle=1;overflow=hidden;whiteSpace=wrap;html=1;" vertex="1" parent="St-BTR9ovAVdQjKWnuXi-64">
          <mxGeometry width="30" height="30" as="geometry">
            <mxRectangle width="30" height="30" as="alternateBounds" />
          </mxGeometry>
        </mxCell>
        <mxCell id="St-BTR9ovAVdQjKWnuXi-66" value="Emp-ID" style="shape=partialRectangle;connectable=0;fillColor=none;top=0;left=0;bottom=0;right=0;align=left;spacingLeft=6;fontStyle=5;overflow=hidden;whiteSpace=wrap;html=1;" vertex="1" parent="St-BTR9ovAVdQjKWnuXi-64">
          <mxGeometry x="30" width="185" height="30" as="geometry">
            <mxRectangle width="185" height="30" as="alternateBounds" />
          </mxGeometry>
        </mxCell>
        <mxCell id="St-BTR9ovAVdQjKWnuXi-67" value="" style="shape=tableRow;horizontal=0;startSize=0;swimlaneHead=0;swimlaneBody=0;fillColor=none;collapsible=0;dropTarget=0;points=[[0,0.5],[1,0.5]];portConstraint=eastwest;top=0;left=0;right=0;bottom=0;" vertex="1" parent="St-BTR9ovAVdQjKWnuXi-63">
          <mxGeometry y="60" width="215" height="30" as="geometry" />
        </mxCell>
        <mxCell id="St-BTR9ovAVdQjKWnuXi-68" value="" style="shape=partialRectangle;connectable=0;fillColor=none;top=0;left=0;bottom=0;right=0;editable=1;overflow=hidden;whiteSpace=wrap;html=1;" vertex="1" parent="St-BTR9ovAVdQjKWnuXi-67">
          <mxGeometry width="30" height="30" as="geometry">
            <mxRectangle width="30" height="30" as="alternateBounds" />
          </mxGeometry>
        </mxCell>
        <mxCell id="St-BTR9ovAVdQjKWnuXi-69" value="Emp-ID" style="shape=partialRectangle;connectable=0;fillColor=none;top=0;left=0;bottom=0;right=0;align=left;spacingLeft=6;overflow=hidden;whiteSpace=wrap;html=1;strokeWidth=3;" vertex="1" parent="St-BTR9ovAVdQjKWnuXi-67">
          <mxGeometry x="30" width="185" height="30" as="geometry">
            <mxRectangle width="185" height="30" as="alternateBounds" />
          </mxGeometry>
        </mxCell>
        <mxCell id="St-BTR9ovAVdQjKWnuXi-70" value="" style="shape=tableRow;horizontal=0;startSize=0;swimlaneHead=0;swimlaneBody=0;fillColor=none;collapsible=0;dropTarget=0;points=[[0,0.5],[1,0.5]];portConstraint=eastwest;top=0;left=0;right=0;bottom=0;" vertex="1" parent="St-BTR9ovAVdQjKWnuXi-63">
          <mxGeometry y="90" width="215" height="30" as="geometry" />
        </mxCell>
        <mxCell id="St-BTR9ovAVdQjKWnuXi-71" value="" style="shape=partialRectangle;connectable=0;fillColor=none;top=0;left=0;bottom=0;right=0;editable=1;overflow=hidden;whiteSpace=wrap;html=1;" vertex="1" parent="St-BTR9ovAVdQjKWnuXi-70">
          <mxGeometry width="30" height="30" as="geometry">
            <mxRectangle width="30" height="30" as="alternateBounds" />
          </mxGeometry>
        </mxCell>
        <mxCell id="St-BTR9ovAVdQjKWnuXi-72" value="Address" style="shape=partialRectangle;connectable=0;fillColor=none;top=0;left=0;bottom=0;right=0;align=left;spacingLeft=6;overflow=hidden;whiteSpace=wrap;html=1;" vertex="1" parent="St-BTR9ovAVdQjKWnuXi-70">
          <mxGeometry x="30" width="185" height="30" as="geometry">
            <mxRectangle width="185" height="30" as="alternateBounds" />
          </mxGeometry>
        </mxCell>
        <mxCell id="St-BTR9ovAVdQjKWnuXi-73" value="" style="shape=tableRow;horizontal=0;startSize=0;swimlaneHead=0;swimlaneBody=0;fillColor=none;collapsible=0;dropTarget=0;points=[[0,0.5],[1,0.5]];portConstraint=eastwest;top=0;left=0;right=0;bottom=0;" vertex="1" parent="St-BTR9ovAVdQjKWnuXi-63">
          <mxGeometry y="120" width="215" height="30" as="geometry" />
        </mxCell>
        <mxCell id="St-BTR9ovAVdQjKWnuXi-74" value="" style="shape=partialRectangle;connectable=0;fillColor=none;top=0;left=0;bottom=0;right=0;editable=1;overflow=hidden;whiteSpace=wrap;html=1;" vertex="1" parent="St-BTR9ovAVdQjKWnuXi-73">
          <mxGeometry width="30" height="30" as="geometry">
            <mxRectangle width="30" height="30" as="alternateBounds" />
          </mxGeometry>
        </mxCell>
        <mxCell id="St-BTR9ovAVdQjKWnuXi-75" value="Gender" style="shape=partialRectangle;connectable=0;fillColor=none;top=0;left=0;bottom=0;right=0;align=left;spacingLeft=6;overflow=hidden;whiteSpace=wrap;html=1;" vertex="1" parent="St-BTR9ovAVdQjKWnuXi-73">
          <mxGeometry x="30" width="185" height="30" as="geometry">
            <mxRectangle width="185" height="30" as="alternateBounds" />
          </mxGeometry>
        </mxCell>
        <mxCell id="St-BTR9ovAVdQjKWnuXi-76" value="" style="shape=tableRow;horizontal=0;startSize=0;swimlaneHead=0;swimlaneBody=0;fillColor=none;collapsible=0;dropTarget=0;points=[[0,0.5],[1,0.5]];portConstraint=eastwest;top=0;left=0;right=0;bottom=0;" vertex="1" parent="St-BTR9ovAVdQjKWnuXi-63">
          <mxGeometry y="150" width="215" height="30" as="geometry" />
        </mxCell>
        <mxCell id="St-BTR9ovAVdQjKWnuXi-77" value="" style="shape=partialRectangle;connectable=0;fillColor=none;top=0;left=0;bottom=0;right=0;editable=1;overflow=hidden;whiteSpace=wrap;html=1;" vertex="1" parent="St-BTR9ovAVdQjKWnuXi-76">
          <mxGeometry width="30" height="30" as="geometry">
            <mxRectangle width="30" height="30" as="alternateBounds" />
          </mxGeometry>
        </mxCell>
        <mxCell id="St-BTR9ovAVdQjKWnuXi-78" value="Name" style="shape=partialRectangle;connectable=0;fillColor=none;top=0;left=0;bottom=0;right=0;align=left;spacingLeft=6;overflow=hidden;whiteSpace=wrap;html=1;strokeWidth=3;" vertex="1" parent="St-BTR9ovAVdQjKWnuXi-76">
          <mxGeometry x="30" width="185" height="30" as="geometry">
            <mxRectangle width="185" height="30" as="alternateBounds" />
          </mxGeometry>
        </mxCell>
        <mxCell id="St-BTR9ovAVdQjKWnuXi-79" value="" style="shape=tableRow;horizontal=0;startSize=0;swimlaneHead=0;swimlaneBody=0;fillColor=none;collapsible=0;dropTarget=0;points=[[0,0.5],[1,0.5]];portConstraint=eastwest;top=0;left=0;right=0;bottom=0;" vertex="1" parent="St-BTR9ovAVdQjKWnuXi-63">
          <mxGeometry y="180" width="215" height="30" as="geometry" />
        </mxCell>
        <mxCell id="St-BTR9ovAVdQjKWnuXi-80" value="" style="shape=partialRectangle;connectable=0;fillColor=none;top=0;left=0;bottom=0;right=0;editable=1;overflow=hidden;whiteSpace=wrap;html=1;" vertex="1" parent="St-BTR9ovAVdQjKWnuXi-79">
          <mxGeometry width="30" height="30" as="geometry">
            <mxRectangle width="30" height="30" as="alternateBounds" />
          </mxGeometry>
        </mxCell>
        <mxCell id="St-BTR9ovAVdQjKWnuXi-81" value="Position" style="shape=partialRectangle;connectable=0;fillColor=none;top=0;left=0;bottom=0;right=0;align=left;spacingLeft=6;overflow=hidden;whiteSpace=wrap;html=1;strokeWidth=3;" vertex="1" parent="St-BTR9ovAVdQjKWnuXi-79">
          <mxGeometry x="30" width="185" height="30" as="geometry">
            <mxRectangle width="185" height="30" as="alternateBounds" />
          </mxGeometry>
        </mxCell>
        <mxCell id="St-BTR9ovAVdQjKWnuXi-82" value="" style="shape=tableRow;horizontal=0;startSize=0;swimlaneHead=0;swimlaneBody=0;fillColor=none;collapsible=0;dropTarget=0;points=[[0,0.5],[1,0.5]];portConstraint=eastwest;top=0;left=0;right=0;bottom=0;" vertex="1" parent="St-BTR9ovAVdQjKWnuXi-63">
          <mxGeometry y="210" width="215" height="30" as="geometry" />
        </mxCell>
        <mxCell id="St-BTR9ovAVdQjKWnuXi-83" value="" style="shape=partialRectangle;connectable=0;fillColor=none;top=0;left=0;bottom=0;right=0;editable=1;overflow=hidden;whiteSpace=wrap;html=1;" vertex="1" parent="St-BTR9ovAVdQjKWnuXi-82">
          <mxGeometry width="30" height="30" as="geometry">
            <mxRectangle width="30" height="30" as="alternateBounds" />
          </mxGeometry>
        </mxCell>
        <mxCell id="St-BTR9ovAVdQjKWnuXi-84" value="Birt-Day" style="shape=partialRectangle;connectable=0;fillColor=none;top=0;left=0;bottom=0;right=0;align=left;spacingLeft=6;overflow=hidden;whiteSpace=wrap;html=1;strokeWidth=3;" vertex="1" parent="St-BTR9ovAVdQjKWnuXi-82">
          <mxGeometry x="30" width="185" height="30" as="geometry">
            <mxRectangle width="185" height="30" as="alternateBounds" />
          </mxGeometry>
        </mxCell>
        <mxCell id="St-BTR9ovAVdQjKWnuXi-85" value="" style="shape=tableRow;horizontal=0;startSize=0;swimlaneHead=0;swimlaneBody=0;fillColor=none;collapsible=0;dropTarget=0;points=[[0,0.5],[1,0.5]];portConstraint=eastwest;top=0;left=0;right=0;bottom=0;" vertex="1" parent="St-BTR9ovAVdQjKWnuXi-63">
          <mxGeometry y="240" width="215" height="30" as="geometry" />
        </mxCell>
        <mxCell id="St-BTR9ovAVdQjKWnuXi-86" value="" style="shape=partialRectangle;connectable=0;fillColor=none;top=0;left=0;bottom=0;right=0;editable=1;overflow=hidden;whiteSpace=wrap;html=1;" vertex="1" parent="St-BTR9ovAVdQjKWnuXi-85">
          <mxGeometry width="30" height="30" as="geometry">
            <mxRectangle width="30" height="30" as="alternateBounds" />
          </mxGeometry>
        </mxCell>
        <mxCell id="St-BTR9ovAVdQjKWnuXi-87" value="Birt-Month" style="shape=partialRectangle;connectable=0;fillColor=none;top=0;left=0;bottom=0;right=0;align=left;spacingLeft=6;overflow=hidden;whiteSpace=wrap;html=1;strokeWidth=3;" vertex="1" parent="St-BTR9ovAVdQjKWnuXi-85">
          <mxGeometry x="30" width="185" height="30" as="geometry">
            <mxRectangle width="185" height="30" as="alternateBounds" />
          </mxGeometry>
        </mxCell>
        <mxCell id="St-BTR9ovAVdQjKWnuXi-88" value="" style="shape=tableRow;horizontal=0;startSize=0;swimlaneHead=0;swimlaneBody=0;fillColor=none;collapsible=0;dropTarget=0;points=[[0,0.5],[1,0.5]];portConstraint=eastwest;top=0;left=0;right=0;bottom=0;" vertex="1" parent="St-BTR9ovAVdQjKWnuXi-63">
          <mxGeometry y="270" width="215" height="30" as="geometry" />
        </mxCell>
        <mxCell id="St-BTR9ovAVdQjKWnuXi-89" value="" style="shape=partialRectangle;connectable=0;fillColor=none;top=0;left=0;bottom=0;right=0;editable=1;overflow=hidden;whiteSpace=wrap;html=1;" vertex="1" parent="St-BTR9ovAVdQjKWnuXi-88">
          <mxGeometry width="30" height="30" as="geometry">
            <mxRectangle width="30" height="30" as="alternateBounds" />
          </mxGeometry>
        </mxCell>
        <mxCell id="St-BTR9ovAVdQjKWnuXi-90" value="Birt-Year" style="shape=partialRectangle;connectable=0;fillColor=none;top=0;left=0;bottom=0;right=0;align=left;spacingLeft=6;overflow=hidden;whiteSpace=wrap;html=1;strokeWidth=3;" vertex="1" parent="St-BTR9ovAVdQjKWnuXi-88">
          <mxGeometry x="30" width="185" height="30" as="geometry">
            <mxRectangle width="185" height="30" as="alternateBounds" />
          </mxGeometry>
        </mxCell>
        <mxCell id="St-BTR9ovAVdQjKWnuXi-91" value="" style="shape=tableRow;horizontal=0;startSize=0;swimlaneHead=0;swimlaneBody=0;fillColor=none;collapsible=0;dropTarget=0;points=[[0,0.5],[1,0.5]];portConstraint=eastwest;top=0;left=0;right=0;bottom=0;" vertex="1" parent="St-BTR9ovAVdQjKWnuXi-63">
          <mxGeometry y="300" width="215" height="30" as="geometry" />
        </mxCell>
        <mxCell id="St-BTR9ovAVdQjKWnuXi-92" value="" style="shape=partialRectangle;connectable=0;fillColor=none;top=0;left=0;bottom=0;right=0;editable=1;overflow=hidden;whiteSpace=wrap;html=1;" vertex="1" parent="St-BTR9ovAVdQjKWnuXi-91">
          <mxGeometry width="30" height="30" as="geometry">
            <mxRectangle width="30" height="30" as="alternateBounds" />
          </mxGeometry>
        </mxCell>
        <mxCell id="St-BTR9ovAVdQjKWnuXi-93" value="Qualification" style="shape=partialRectangle;connectable=0;fillColor=none;top=0;left=0;bottom=0;right=0;align=left;spacingLeft=6;overflow=hidden;whiteSpace=wrap;html=1;strokeWidth=3;" vertex="1" parent="St-BTR9ovAVdQjKWnuXi-91">
          <mxGeometry x="30" width="185" height="30" as="geometry">
            <mxRectangle width="185" height="30" as="alternateBounds" />
          </mxGeometry>
        </mxCell>
        <mxCell id="St-BTR9ovAVdQjKWnuXi-94" value="" style="shape=tableRow;horizontal=0;startSize=0;swimlaneHead=0;swimlaneBody=0;fillColor=none;collapsible=0;dropTarget=0;points=[[0,0.5],[1,0.5]];portConstraint=eastwest;top=0;left=0;right=0;bottom=0;" vertex="1" parent="St-BTR9ovAVdQjKWnuXi-63">
          <mxGeometry y="330" width="215" height="30" as="geometry" />
        </mxCell>
        <mxCell id="St-BTR9ovAVdQjKWnuXi-95" value="" style="shape=partialRectangle;connectable=0;fillColor=none;top=0;left=0;bottom=0;right=0;editable=1;overflow=hidden;whiteSpace=wrap;html=1;" vertex="1" parent="St-BTR9ovAVdQjKWnuXi-94">
          <mxGeometry width="30" height="30" as="geometry">
            <mxRectangle width="30" height="30" as="alternateBounds" />
          </mxGeometry>
        </mxCell>
        <mxCell id="St-BTR9ovAVdQjKWnuXi-96" value="&lt;font style=&quot;color: rgb(0, 0, 153);&quot;&gt;&lt;b&gt;Airline-ID&lt;/b&gt;&lt;/font&gt;" style="shape=partialRectangle;connectable=0;fillColor=none;top=0;left=0;bottom=0;right=0;align=left;spacingLeft=6;overflow=hidden;whiteSpace=wrap;html=1;strokeWidth=3;" vertex="1" parent="St-BTR9ovAVdQjKWnuXi-94">
          <mxGeometry x="30" width="185" height="30" as="geometry">
            <mxRectangle width="185" height="30" as="alternateBounds" />
          </mxGeometry>
        </mxCell>
        <mxCell id="St-BTR9ovAVdQjKWnuXi-97" value="&lt;font style=&quot;font-size: 18px;&quot;&gt;Transactions&lt;/font&gt;" style="shape=table;startSize=30;container=1;collapsible=1;childLayout=tableLayout;fixedRows=1;rowLines=0;fontStyle=1;align=center;resizeLast=1;html=1;strokeWidth=2;fillColor=#ffff88;strokeColor=#36393d;" vertex="1" parent="1">
          <mxGeometry x="282.5" y="175" width="180" height="210" as="geometry" />
        </mxCell>
        <mxCell id="St-BTR9ovAVdQjKWnuXi-98" value="" style="shape=tableRow;horizontal=0;startSize=0;swimlaneHead=0;swimlaneBody=0;fillColor=none;collapsible=0;dropTarget=0;points=[[0,0.5],[1,0.5]];portConstraint=eastwest;top=0;left=0;right=0;bottom=1;" vertex="1" parent="St-BTR9ovAVdQjKWnuXi-97">
          <mxGeometry y="30" width="180" height="30" as="geometry" />
        </mxCell>
        <mxCell id="St-BTR9ovAVdQjKWnuXi-99" value="PK" style="shape=partialRectangle;connectable=0;fillColor=none;top=0;left=0;bottom=0;right=0;fontStyle=1;overflow=hidden;whiteSpace=wrap;html=1;" vertex="1" parent="St-BTR9ovAVdQjKWnuXi-98">
          <mxGeometry width="30" height="30" as="geometry">
            <mxRectangle width="30" height="30" as="alternateBounds" />
          </mxGeometry>
        </mxCell>
        <mxCell id="St-BTR9ovAVdQjKWnuXi-100" value="Trans-ID" style="shape=partialRectangle;connectable=0;fillColor=none;top=0;left=0;bottom=0;right=0;align=left;spacingLeft=6;fontStyle=5;overflow=hidden;whiteSpace=wrap;html=1;" vertex="1" parent="St-BTR9ovAVdQjKWnuXi-98">
          <mxGeometry x="30" width="150" height="30" as="geometry">
            <mxRectangle width="150" height="30" as="alternateBounds" />
          </mxGeometry>
        </mxCell>
        <mxCell id="St-BTR9ovAVdQjKWnuXi-101" value="" style="shape=tableRow;horizontal=0;startSize=0;swimlaneHead=0;swimlaneBody=0;fillColor=none;collapsible=0;dropTarget=0;points=[[0,0.5],[1,0.5]];portConstraint=eastwest;top=0;left=0;right=0;bottom=0;" vertex="1" parent="St-BTR9ovAVdQjKWnuXi-97">
          <mxGeometry y="60" width="180" height="30" as="geometry" />
        </mxCell>
        <mxCell id="St-BTR9ovAVdQjKWnuXi-102" value="" style="shape=partialRectangle;connectable=0;fillColor=none;top=0;left=0;bottom=0;right=0;editable=1;overflow=hidden;whiteSpace=wrap;html=1;" vertex="1" parent="St-BTR9ovAVdQjKWnuXi-101">
          <mxGeometry width="30" height="30" as="geometry">
            <mxRectangle width="30" height="30" as="alternateBounds" />
          </mxGeometry>
        </mxCell>
        <mxCell id="St-BTR9ovAVdQjKWnuXi-103" value="Trans-ID" style="shape=partialRectangle;connectable=0;fillColor=none;top=0;left=0;bottom=0;right=0;align=left;spacingLeft=6;overflow=hidden;whiteSpace=wrap;html=1;strokeWidth=3;" vertex="1" parent="St-BTR9ovAVdQjKWnuXi-101">
          <mxGeometry x="30" width="150" height="30" as="geometry">
            <mxRectangle width="150" height="30" as="alternateBounds" />
          </mxGeometry>
        </mxCell>
        <mxCell id="St-BTR9ovAVdQjKWnuXi-104" value="" style="shape=tableRow;horizontal=0;startSize=0;swimlaneHead=0;swimlaneBody=0;fillColor=none;collapsible=0;dropTarget=0;points=[[0,0.5],[1,0.5]];portConstraint=eastwest;top=0;left=0;right=0;bottom=0;" vertex="1" parent="St-BTR9ovAVdQjKWnuXi-97">
          <mxGeometry y="90" width="180" height="30" as="geometry" />
        </mxCell>
        <mxCell id="St-BTR9ovAVdQjKWnuXi-105" value="" style="shape=partialRectangle;connectable=0;fillColor=none;top=0;left=0;bottom=0;right=0;editable=1;overflow=hidden;whiteSpace=wrap;html=1;" vertex="1" parent="St-BTR9ovAVdQjKWnuXi-104">
          <mxGeometry width="30" height="30" as="geometry">
            <mxRectangle width="30" height="30" as="alternateBounds" />
          </mxGeometry>
        </mxCell>
        <mxCell id="St-BTR9ovAVdQjKWnuXi-106" value="Date" style="shape=partialRectangle;connectable=0;fillColor=none;top=0;left=0;bottom=0;right=0;align=left;spacingLeft=6;overflow=hidden;whiteSpace=wrap;html=1;" vertex="1" parent="St-BTR9ovAVdQjKWnuXi-104">
          <mxGeometry x="30" width="150" height="30" as="geometry">
            <mxRectangle width="150" height="30" as="alternateBounds" />
          </mxGeometry>
        </mxCell>
        <mxCell id="St-BTR9ovAVdQjKWnuXi-107" value="" style="shape=tableRow;horizontal=0;startSize=0;swimlaneHead=0;swimlaneBody=0;fillColor=none;collapsible=0;dropTarget=0;points=[[0,0.5],[1,0.5]];portConstraint=eastwest;top=0;left=0;right=0;bottom=0;" vertex="1" parent="St-BTR9ovAVdQjKWnuXi-97">
          <mxGeometry y="120" width="180" height="30" as="geometry" />
        </mxCell>
        <mxCell id="St-BTR9ovAVdQjKWnuXi-108" value="" style="shape=partialRectangle;connectable=0;fillColor=none;top=0;left=0;bottom=0;right=0;editable=1;overflow=hidden;whiteSpace=wrap;html=1;" vertex="1" parent="St-BTR9ovAVdQjKWnuXi-107">
          <mxGeometry width="30" height="30" as="geometry">
            <mxRectangle width="30" height="30" as="alternateBounds" />
          </mxGeometry>
        </mxCell>
        <mxCell id="St-BTR9ovAVdQjKWnuXi-109" value="Description" style="shape=partialRectangle;connectable=0;fillColor=none;top=0;left=0;bottom=0;right=0;align=left;spacingLeft=6;overflow=hidden;whiteSpace=wrap;html=1;" vertex="1" parent="St-BTR9ovAVdQjKWnuXi-107">
          <mxGeometry x="30" width="150" height="30" as="geometry">
            <mxRectangle width="150" height="30" as="alternateBounds" />
          </mxGeometry>
        </mxCell>
        <mxCell id="St-BTR9ovAVdQjKWnuXi-110" value="" style="shape=tableRow;horizontal=0;startSize=0;swimlaneHead=0;swimlaneBody=0;fillColor=none;collapsible=0;dropTarget=0;points=[[0,0.5],[1,0.5]];portConstraint=eastwest;top=0;left=0;right=0;bottom=0;" vertex="1" parent="St-BTR9ovAVdQjKWnuXi-97">
          <mxGeometry y="150" width="180" height="30" as="geometry" />
        </mxCell>
        <mxCell id="St-BTR9ovAVdQjKWnuXi-111" value="" style="shape=partialRectangle;connectable=0;fillColor=none;top=0;left=0;bottom=0;right=0;editable=1;overflow=hidden;whiteSpace=wrap;html=1;" vertex="1" parent="St-BTR9ovAVdQjKWnuXi-110">
          <mxGeometry width="30" height="30" as="geometry">
            <mxRectangle width="30" height="30" as="alternateBounds" />
          </mxGeometry>
        </mxCell>
        <mxCell id="St-BTR9ovAVdQjKWnuXi-112" value="Amount" style="shape=partialRectangle;connectable=0;fillColor=none;top=0;left=0;bottom=0;right=0;align=left;spacingLeft=6;overflow=hidden;whiteSpace=wrap;html=1;strokeWidth=3;" vertex="1" parent="St-BTR9ovAVdQjKWnuXi-110">
          <mxGeometry x="30" width="150" height="30" as="geometry">
            <mxRectangle width="150" height="30" as="alternateBounds" />
          </mxGeometry>
        </mxCell>
        <mxCell id="St-BTR9ovAVdQjKWnuXi-113" value="" style="shape=tableRow;horizontal=0;startSize=0;swimlaneHead=0;swimlaneBody=0;fillColor=none;collapsible=0;dropTarget=0;points=[[0,0.5],[1,0.5]];portConstraint=eastwest;top=0;left=0;right=0;bottom=0;" vertex="1" parent="St-BTR9ovAVdQjKWnuXi-97">
          <mxGeometry y="180" width="180" height="30" as="geometry" />
        </mxCell>
        <mxCell id="St-BTR9ovAVdQjKWnuXi-114" value="" style="shape=partialRectangle;connectable=0;fillColor=none;top=0;left=0;bottom=0;right=0;editable=1;overflow=hidden;whiteSpace=wrap;html=1;" vertex="1" parent="St-BTR9ovAVdQjKWnuXi-113">
          <mxGeometry width="30" height="30" as="geometry">
            <mxRectangle width="30" height="30" as="alternateBounds" />
          </mxGeometry>
        </mxCell>
        <mxCell id="St-BTR9ovAVdQjKWnuXi-115" value="&lt;b&gt;&lt;font style=&quot;color: rgb(0, 0, 153);&quot;&gt;Airline-ID&lt;/font&gt;&lt;/b&gt;" style="shape=partialRectangle;connectable=0;fillColor=none;top=0;left=0;bottom=0;right=0;align=left;spacingLeft=6;overflow=hidden;whiteSpace=wrap;html=1;strokeWidth=3;" vertex="1" parent="St-BTR9ovAVdQjKWnuXi-113">
          <mxGeometry x="30" width="150" height="30" as="geometry">
            <mxRectangle width="150" height="30" as="alternateBounds" />
          </mxGeometry>
        </mxCell>
        <mxCell id="St-BTR9ovAVdQjKWnuXi-116" value="&lt;font style=&quot;font-size: 18px;&quot;&gt;Routes&lt;/font&gt;" style="shape=table;startSize=30;container=1;collapsible=1;childLayout=tableLayout;fixedRows=1;rowLines=0;fontStyle=1;align=center;resizeLast=1;html=1;strokeWidth=2;fillColor=#cdeb8b;strokeColor=#36393d;" vertex="1" parent="1">
          <mxGeometry x="50" y="-398" width="180" height="180" as="geometry" />
        </mxCell>
        <mxCell id="St-BTR9ovAVdQjKWnuXi-117" value="" style="shape=tableRow;horizontal=0;startSize=0;swimlaneHead=0;swimlaneBody=0;fillColor=none;collapsible=0;dropTarget=0;points=[[0,0.5],[1,0.5]];portConstraint=eastwest;top=0;left=0;right=0;bottom=1;" vertex="1" parent="St-BTR9ovAVdQjKWnuXi-116">
          <mxGeometry y="30" width="180" height="30" as="geometry" />
        </mxCell>
        <mxCell id="St-BTR9ovAVdQjKWnuXi-118" value="PK" style="shape=partialRectangle;connectable=0;fillColor=none;top=0;left=0;bottom=0;right=0;fontStyle=1;overflow=hidden;whiteSpace=wrap;html=1;" vertex="1" parent="St-BTR9ovAVdQjKWnuXi-117">
          <mxGeometry width="30" height="30" as="geometry">
            <mxRectangle width="30" height="30" as="alternateBounds" />
          </mxGeometry>
        </mxCell>
        <mxCell id="St-BTR9ovAVdQjKWnuXi-119" value="Route-ID" style="shape=partialRectangle;connectable=0;fillColor=none;top=0;left=0;bottom=0;right=0;align=left;spacingLeft=6;fontStyle=5;overflow=hidden;whiteSpace=wrap;html=1;" vertex="1" parent="St-BTR9ovAVdQjKWnuXi-117">
          <mxGeometry x="30" width="150" height="30" as="geometry">
            <mxRectangle width="150" height="30" as="alternateBounds" />
          </mxGeometry>
        </mxCell>
        <mxCell id="St-BTR9ovAVdQjKWnuXi-120" value="" style="shape=tableRow;horizontal=0;startSize=0;swimlaneHead=0;swimlaneBody=0;fillColor=none;collapsible=0;dropTarget=0;points=[[0,0.5],[1,0.5]];portConstraint=eastwest;top=0;left=0;right=0;bottom=0;" vertex="1" parent="St-BTR9ovAVdQjKWnuXi-116">
          <mxGeometry y="60" width="180" height="30" as="geometry" />
        </mxCell>
        <mxCell id="St-BTR9ovAVdQjKWnuXi-121" value="" style="shape=partialRectangle;connectable=0;fillColor=none;top=0;left=0;bottom=0;right=0;editable=1;overflow=hidden;whiteSpace=wrap;html=1;" vertex="1" parent="St-BTR9ovAVdQjKWnuXi-120">
          <mxGeometry width="30" height="30" as="geometry">
            <mxRectangle width="30" height="30" as="alternateBounds" />
          </mxGeometry>
        </mxCell>
        <mxCell id="St-BTR9ovAVdQjKWnuXi-122" value="Route-ID" style="shape=partialRectangle;connectable=0;fillColor=none;top=0;left=0;bottom=0;right=0;align=left;spacingLeft=6;overflow=hidden;whiteSpace=wrap;html=1;strokeWidth=3;" vertex="1" parent="St-BTR9ovAVdQjKWnuXi-120">
          <mxGeometry x="30" width="150" height="30" as="geometry">
            <mxRectangle width="150" height="30" as="alternateBounds" />
          </mxGeometry>
        </mxCell>
        <mxCell id="St-BTR9ovAVdQjKWnuXi-123" value="" style="shape=tableRow;horizontal=0;startSize=0;swimlaneHead=0;swimlaneBody=0;fillColor=none;collapsible=0;dropTarget=0;points=[[0,0.5],[1,0.5]];portConstraint=eastwest;top=0;left=0;right=0;bottom=0;" vertex="1" parent="St-BTR9ovAVdQjKWnuXi-116">
          <mxGeometry y="90" width="180" height="30" as="geometry" />
        </mxCell>
        <mxCell id="St-BTR9ovAVdQjKWnuXi-124" value="" style="shape=partialRectangle;connectable=0;fillColor=none;top=0;left=0;bottom=0;right=0;editable=1;overflow=hidden;whiteSpace=wrap;html=1;" vertex="1" parent="St-BTR9ovAVdQjKWnuXi-123">
          <mxGeometry width="30" height="30" as="geometry">
            <mxRectangle width="30" height="30" as="alternateBounds" />
          </mxGeometry>
        </mxCell>
        <mxCell id="St-BTR9ovAVdQjKWnuXi-125" value="Origin" style="shape=partialRectangle;connectable=0;fillColor=none;top=0;left=0;bottom=0;right=0;align=left;spacingLeft=6;overflow=hidden;whiteSpace=wrap;html=1;" vertex="1" parent="St-BTR9ovAVdQjKWnuXi-123">
          <mxGeometry x="30" width="150" height="30" as="geometry">
            <mxRectangle width="150" height="30" as="alternateBounds" />
          </mxGeometry>
        </mxCell>
        <mxCell id="St-BTR9ovAVdQjKWnuXi-126" value="" style="shape=tableRow;horizontal=0;startSize=0;swimlaneHead=0;swimlaneBody=0;fillColor=none;collapsible=0;dropTarget=0;points=[[0,0.5],[1,0.5]];portConstraint=eastwest;top=0;left=0;right=0;bottom=0;" vertex="1" parent="St-BTR9ovAVdQjKWnuXi-116">
          <mxGeometry y="120" width="180" height="30" as="geometry" />
        </mxCell>
        <mxCell id="St-BTR9ovAVdQjKWnuXi-127" value="" style="shape=partialRectangle;connectable=0;fillColor=none;top=0;left=0;bottom=0;right=0;editable=1;overflow=hidden;whiteSpace=wrap;html=1;" vertex="1" parent="St-BTR9ovAVdQjKWnuXi-126">
          <mxGeometry width="30" height="30" as="geometry">
            <mxRectangle width="30" height="30" as="alternateBounds" />
          </mxGeometry>
        </mxCell>
        <mxCell id="St-BTR9ovAVdQjKWnuXi-128" value="Distance" style="shape=partialRectangle;connectable=0;fillColor=none;top=0;left=0;bottom=0;right=0;align=left;spacingLeft=6;overflow=hidden;whiteSpace=wrap;html=1;" vertex="1" parent="St-BTR9ovAVdQjKWnuXi-126">
          <mxGeometry x="30" width="150" height="30" as="geometry">
            <mxRectangle width="150" height="30" as="alternateBounds" />
          </mxGeometry>
        </mxCell>
        <mxCell id="St-BTR9ovAVdQjKWnuXi-129" value="" style="shape=tableRow;horizontal=0;startSize=0;swimlaneHead=0;swimlaneBody=0;fillColor=none;collapsible=0;dropTarget=0;points=[[0,0.5],[1,0.5]];portConstraint=eastwest;top=0;left=0;right=0;bottom=0;" vertex="1" parent="St-BTR9ovAVdQjKWnuXi-116">
          <mxGeometry y="150" width="180" height="30" as="geometry" />
        </mxCell>
        <mxCell id="St-BTR9ovAVdQjKWnuXi-130" value="" style="shape=partialRectangle;connectable=0;fillColor=none;top=0;left=0;bottom=0;right=0;editable=1;overflow=hidden;whiteSpace=wrap;html=1;" vertex="1" parent="St-BTR9ovAVdQjKWnuXi-129">
          <mxGeometry width="30" height="30" as="geometry">
            <mxRectangle width="30" height="30" as="alternateBounds" />
          </mxGeometry>
        </mxCell>
        <mxCell id="St-BTR9ovAVdQjKWnuXi-131" value="Distination" style="shape=partialRectangle;connectable=0;fillColor=none;top=0;left=0;bottom=0;right=0;align=left;spacingLeft=6;overflow=hidden;whiteSpace=wrap;html=1;strokeWidth=3;" vertex="1" parent="St-BTR9ovAVdQjKWnuXi-129">
          <mxGeometry x="30" width="150" height="30" as="geometry">
            <mxRectangle width="150" height="30" as="alternateBounds" />
          </mxGeometry>
        </mxCell>
        <mxCell id="St-BTR9ovAVdQjKWnuXi-132" value="&lt;font style=&quot;font-size: 17px;&quot;&gt;Route-Classifications&lt;/font&gt;" style="shape=table;startSize=30;container=1;collapsible=1;childLayout=tableLayout;fixedRows=1;rowLines=0;fontStyle=1;align=center;resizeLast=1;html=1;strokeWidth=2;fillColor=#eeeeee;strokeColor=#36393d;" vertex="1" parent="1">
          <mxGeometry x="-230" y="-500" width="210" height="120" as="geometry" />
        </mxCell>
        <mxCell id="St-BTR9ovAVdQjKWnuXi-133" value="" style="shape=tableRow;horizontal=0;startSize=0;swimlaneHead=0;swimlaneBody=0;fillColor=none;collapsible=0;dropTarget=0;points=[[0,0.5],[1,0.5]];portConstraint=eastwest;top=0;left=0;right=0;bottom=1;" vertex="1" parent="St-BTR9ovAVdQjKWnuXi-132">
          <mxGeometry y="30" width="210" height="30" as="geometry" />
        </mxCell>
        <mxCell id="St-BTR9ovAVdQjKWnuXi-134" value="PK" style="shape=partialRectangle;connectable=0;fillColor=none;top=0;left=0;bottom=0;right=0;fontStyle=1;overflow=hidden;whiteSpace=wrap;html=1;" vertex="1" parent="St-BTR9ovAVdQjKWnuXi-133">
          <mxGeometry width="30" height="30" as="geometry">
            <mxRectangle width="30" height="30" as="alternateBounds" />
          </mxGeometry>
        </mxCell>
        <mxCell id="St-BTR9ovAVdQjKWnuXi-135" value="Classification, Route-ID" style="shape=partialRectangle;connectable=0;fillColor=none;top=0;left=0;bottom=0;right=0;align=left;spacingLeft=6;fontStyle=5;overflow=hidden;whiteSpace=wrap;html=1;" vertex="1" parent="St-BTR9ovAVdQjKWnuXi-133">
          <mxGeometry x="30" width="180" height="30" as="geometry">
            <mxRectangle width="180" height="30" as="alternateBounds" />
          </mxGeometry>
        </mxCell>
        <mxCell id="St-BTR9ovAVdQjKWnuXi-136" value="" style="shape=tableRow;horizontal=0;startSize=0;swimlaneHead=0;swimlaneBody=0;fillColor=none;collapsible=0;dropTarget=0;points=[[0,0.5],[1,0.5]];portConstraint=eastwest;top=0;left=0;right=0;bottom=0;" vertex="1" parent="St-BTR9ovAVdQjKWnuXi-132">
          <mxGeometry y="60" width="210" height="30" as="geometry" />
        </mxCell>
        <mxCell id="St-BTR9ovAVdQjKWnuXi-137" value="" style="shape=partialRectangle;connectable=0;fillColor=none;top=0;left=0;bottom=0;right=0;editable=1;overflow=hidden;whiteSpace=wrap;html=1;" vertex="1" parent="St-BTR9ovAVdQjKWnuXi-136">
          <mxGeometry width="30" height="30" as="geometry">
            <mxRectangle width="30" height="30" as="alternateBounds" />
          </mxGeometry>
        </mxCell>
        <mxCell id="St-BTR9ovAVdQjKWnuXi-138" value="Classification" style="shape=partialRectangle;connectable=0;fillColor=none;top=0;left=0;bottom=0;right=0;align=left;spacingLeft=6;overflow=hidden;whiteSpace=wrap;html=1;" vertex="1" parent="St-BTR9ovAVdQjKWnuXi-136">
          <mxGeometry x="30" width="180" height="30" as="geometry">
            <mxRectangle width="180" height="30" as="alternateBounds" />
          </mxGeometry>
        </mxCell>
        <mxCell id="St-BTR9ovAVdQjKWnuXi-139" value="" style="shape=tableRow;horizontal=0;startSize=0;swimlaneHead=0;swimlaneBody=0;fillColor=none;collapsible=0;dropTarget=0;points=[[0,0.5],[1,0.5]];portConstraint=eastwest;top=0;left=0;right=0;bottom=0;" vertex="1" parent="St-BTR9ovAVdQjKWnuXi-132">
          <mxGeometry y="90" width="210" height="30" as="geometry" />
        </mxCell>
        <mxCell id="St-BTR9ovAVdQjKWnuXi-140" value="" style="shape=partialRectangle;connectable=0;fillColor=none;top=0;left=0;bottom=0;right=0;editable=1;overflow=hidden;whiteSpace=wrap;html=1;" vertex="1" parent="St-BTR9ovAVdQjKWnuXi-139">
          <mxGeometry width="30" height="30" as="geometry">
            <mxRectangle width="30" height="30" as="alternateBounds" />
          </mxGeometry>
        </mxCell>
        <mxCell id="St-BTR9ovAVdQjKWnuXi-141" value="&lt;font color=&quot;#000099&quot;&gt;&lt;b&gt;Route-ID&lt;/b&gt;&lt;/font&gt;" style="shape=partialRectangle;connectable=0;fillColor=none;top=0;left=0;bottom=0;right=0;align=left;spacingLeft=6;overflow=hidden;whiteSpace=wrap;html=1;" vertex="1" parent="St-BTR9ovAVdQjKWnuXi-139">
          <mxGeometry x="30" width="180" height="30" as="geometry">
            <mxRectangle width="180" height="30" as="alternateBounds" />
          </mxGeometry>
        </mxCell>
        <mxCell id="St-BTR9ovAVdQjKWnuXi-142" style="edgeStyle=orthogonalEdgeStyle;rounded=0;orthogonalLoop=1;jettySize=auto;html=1;entryX=-0.003;entryY=0.127;entryDx=0;entryDy=0;entryPerimeter=0;" edge="1" parent="1" source="St-BTR9ovAVdQjKWnuXi-139" target="St-BTR9ovAVdQjKWnuXi-117">
          <mxGeometry relative="1" as="geometry" />
        </mxCell>
        <mxCell id="St-BTR9ovAVdQjKWnuXi-143" style="edgeStyle=orthogonalEdgeStyle;rounded=0;orthogonalLoop=1;jettySize=auto;html=1;entryX=0;entryY=0;entryDx=0;entryDy=0;entryPerimeter=0;" edge="1" parent="1" source="St-BTR9ovAVdQjKWnuXi-33" target="St-BTR9ovAVdQjKWnuXi-37">
          <mxGeometry relative="1" as="geometry">
            <Array as="points">
              <mxPoint x="-37.5" y="30" />
              <mxPoint x="-37.5" y="75" />
            </Array>
          </mxGeometry>
        </mxCell>
        <mxCell id="St-BTR9ovAVdQjKWnuXi-144" style="edgeStyle=orthogonalEdgeStyle;rounded=0;orthogonalLoop=1;jettySize=auto;html=1;entryX=0.994;entryY=0.211;entryDx=0;entryDy=0;entryPerimeter=0;" edge="1" parent="1" source="St-BTR9ovAVdQjKWnuXi-94" target="St-BTR9ovAVdQjKWnuXi-37">
          <mxGeometry relative="1" as="geometry" />
        </mxCell>
        <mxCell id="St-BTR9ovAVdQjKWnuXi-145" style="edgeStyle=orthogonalEdgeStyle;rounded=0;orthogonalLoop=1;jettySize=auto;html=1;entryX=0.98;entryY=0.833;entryDx=0;entryDy=0;entryPerimeter=0;" edge="1" parent="1" source="St-BTR9ovAVdQjKWnuXi-113" target="St-BTR9ovAVdQjKWnuXi-37">
          <mxGeometry relative="1" as="geometry" />
        </mxCell>
        <mxCell id="St-BTR9ovAVdQjKWnuXi-146" style="edgeStyle=orthogonalEdgeStyle;rounded=0;orthogonalLoop=1;jettySize=auto;html=1;entryX=0;entryY=0.5;entryDx=0;entryDy=0;" edge="1" parent="1" source="St-BTR9ovAVdQjKWnuXi-59" target="St-BTR9ovAVdQjKWnuXi-37">
          <mxGeometry relative="1" as="geometry" />
        </mxCell>
        <mxCell id="St-BTR9ovAVdQjKWnuXi-147" value="&lt;font style=&quot;font-size: 18px;&quot;&gt;Aircraft-Routs&lt;/font&gt;" style="shape=table;startSize=30;container=1;collapsible=1;childLayout=tableLayout;fixedRows=1;rowLines=0;fontStyle=1;align=center;resizeLast=1;html=1;strokeWidth=2;fillColor=#d80073;strokeColor=#A50040;fontColor=#ffffff;" vertex="1" parent="1">
          <mxGeometry x="-495" y="-380" width="180" height="240" as="geometry" />
        </mxCell>
        <mxCell id="St-BTR9ovAVdQjKWnuXi-148" value="" style="shape=tableRow;horizontal=0;startSize=0;swimlaneHead=0;swimlaneBody=0;fillColor=none;collapsible=0;dropTarget=0;points=[[0,0.5],[1,0.5]];portConstraint=eastwest;top=0;left=0;right=0;bottom=1;" vertex="1" parent="St-BTR9ovAVdQjKWnuXi-147">
          <mxGeometry y="30" width="180" height="30" as="geometry" />
        </mxCell>
        <mxCell id="St-BTR9ovAVdQjKWnuXi-149" value="PK" style="shape=partialRectangle;connectable=0;fillColor=none;top=0;left=0;bottom=0;right=0;fontStyle=1;overflow=hidden;whiteSpace=wrap;html=1;" vertex="1" parent="St-BTR9ovAVdQjKWnuXi-148">
          <mxGeometry width="30" height="30" as="geometry">
            <mxRectangle width="30" height="30" as="alternateBounds" />
          </mxGeometry>
        </mxCell>
        <mxCell id="St-BTR9ovAVdQjKWnuXi-150" value="Route-ID, Aircraft-ID" style="shape=partialRectangle;connectable=0;fillColor=none;top=0;left=0;bottom=0;right=0;align=left;spacingLeft=6;fontStyle=5;overflow=hidden;whiteSpace=wrap;html=1;" vertex="1" parent="St-BTR9ovAVdQjKWnuXi-148">
          <mxGeometry x="30" width="150" height="30" as="geometry">
            <mxRectangle width="150" height="30" as="alternateBounds" />
          </mxGeometry>
        </mxCell>
        <mxCell id="St-BTR9ovAVdQjKWnuXi-151" value="" style="shape=tableRow;horizontal=0;startSize=0;swimlaneHead=0;swimlaneBody=0;fillColor=none;collapsible=0;dropTarget=0;points=[[0,0.5],[1,0.5]];portConstraint=eastwest;top=0;left=0;right=0;bottom=0;" vertex="1" parent="St-BTR9ovAVdQjKWnuXi-147">
          <mxGeometry y="60" width="180" height="30" as="geometry" />
        </mxCell>
        <mxCell id="St-BTR9ovAVdQjKWnuXi-152" value="" style="shape=partialRectangle;connectable=0;fillColor=none;top=0;left=0;bottom=0;right=0;editable=1;overflow=hidden;whiteSpace=wrap;html=1;" vertex="1" parent="St-BTR9ovAVdQjKWnuXi-151">
          <mxGeometry width="30" height="30" as="geometry">
            <mxRectangle width="30" height="30" as="alternateBounds" />
          </mxGeometry>
        </mxCell>
        <mxCell id="St-BTR9ovAVdQjKWnuXi-153" value="&lt;font style=&quot;color: rgb(0, 0, 153);&quot;&gt;&lt;b&gt;Route-ID&lt;/b&gt;&lt;/font&gt;" style="shape=partialRectangle;connectable=0;fillColor=none;top=0;left=0;bottom=0;right=0;align=left;spacingLeft=6;overflow=hidden;whiteSpace=wrap;html=1;strokeWidth=3;" vertex="1" parent="St-BTR9ovAVdQjKWnuXi-151">
          <mxGeometry x="30" width="150" height="30" as="geometry">
            <mxRectangle width="150" height="30" as="alternateBounds" />
          </mxGeometry>
        </mxCell>
        <mxCell id="St-BTR9ovAVdQjKWnuXi-154" value="" style="shape=tableRow;horizontal=0;startSize=0;swimlaneHead=0;swimlaneBody=0;fillColor=none;collapsible=0;dropTarget=0;points=[[0,0.5],[1,0.5]];portConstraint=eastwest;top=0;left=0;right=0;bottom=0;" vertex="1" parent="St-BTR9ovAVdQjKWnuXi-147">
          <mxGeometry y="90" width="180" height="30" as="geometry" />
        </mxCell>
        <mxCell id="St-BTR9ovAVdQjKWnuXi-155" value="" style="shape=partialRectangle;connectable=0;fillColor=none;top=0;left=0;bottom=0;right=0;editable=1;overflow=hidden;whiteSpace=wrap;html=1;" vertex="1" parent="St-BTR9ovAVdQjKWnuXi-154">
          <mxGeometry width="30" height="30" as="geometry">
            <mxRectangle width="30" height="30" as="alternateBounds" />
          </mxGeometry>
        </mxCell>
        <mxCell id="St-BTR9ovAVdQjKWnuXi-156" value="&lt;b&gt;&lt;font style=&quot;color: rgb(0, 0, 153);&quot;&gt;Aircraft-ID&lt;/font&gt;&lt;/b&gt;" style="shape=partialRectangle;connectable=0;fillColor=none;top=0;left=0;bottom=0;right=0;align=left;spacingLeft=6;overflow=hidden;whiteSpace=wrap;html=1;" vertex="1" parent="St-BTR9ovAVdQjKWnuXi-154">
          <mxGeometry x="30" width="150" height="30" as="geometry">
            <mxRectangle width="150" height="30" as="alternateBounds" />
          </mxGeometry>
        </mxCell>
        <mxCell id="St-BTR9ovAVdQjKWnuXi-157" value="" style="shape=tableRow;horizontal=0;startSize=0;swimlaneHead=0;swimlaneBody=0;fillColor=none;collapsible=0;dropTarget=0;points=[[0,0.5],[1,0.5]];portConstraint=eastwest;top=0;left=0;right=0;bottom=0;" vertex="1" parent="St-BTR9ovAVdQjKWnuXi-147">
          <mxGeometry y="120" width="180" height="30" as="geometry" />
        </mxCell>
        <mxCell id="St-BTR9ovAVdQjKWnuXi-158" value="" style="shape=partialRectangle;connectable=0;fillColor=none;top=0;left=0;bottom=0;right=0;editable=1;overflow=hidden;whiteSpace=wrap;html=1;" vertex="1" parent="St-BTR9ovAVdQjKWnuXi-157">
          <mxGeometry width="30" height="30" as="geometry">
            <mxRectangle width="30" height="30" as="alternateBounds" />
          </mxGeometry>
        </mxCell>
        <mxCell id="St-BTR9ovAVdQjKWnuXi-159" value="Passengers" style="shape=partialRectangle;connectable=0;fillColor=none;top=0;left=0;bottom=0;right=0;align=left;spacingLeft=6;overflow=hidden;whiteSpace=wrap;html=1;" vertex="1" parent="St-BTR9ovAVdQjKWnuXi-157">
          <mxGeometry x="30" width="150" height="30" as="geometry">
            <mxRectangle width="150" height="30" as="alternateBounds" />
          </mxGeometry>
        </mxCell>
        <mxCell id="St-BTR9ovAVdQjKWnuXi-160" value="" style="shape=tableRow;horizontal=0;startSize=0;swimlaneHead=0;swimlaneBody=0;fillColor=none;collapsible=0;dropTarget=0;points=[[0,0.5],[1,0.5]];portConstraint=eastwest;top=0;left=0;right=0;bottom=0;" vertex="1" parent="St-BTR9ovAVdQjKWnuXi-147">
          <mxGeometry y="150" width="180" height="30" as="geometry" />
        </mxCell>
        <mxCell id="St-BTR9ovAVdQjKWnuXi-161" value="" style="shape=partialRectangle;connectable=0;fillColor=none;top=0;left=0;bottom=0;right=0;editable=1;overflow=hidden;whiteSpace=wrap;html=1;" vertex="1" parent="St-BTR9ovAVdQjKWnuXi-160">
          <mxGeometry width="30" height="30" as="geometry">
            <mxRectangle width="30" height="30" as="alternateBounds" />
          </mxGeometry>
        </mxCell>
        <mxCell id="St-BTR9ovAVdQjKWnuXi-162" value="Departure Time" style="shape=partialRectangle;connectable=0;fillColor=none;top=0;left=0;bottom=0;right=0;align=left;spacingLeft=6;overflow=hidden;whiteSpace=wrap;html=1;strokeWidth=3;" vertex="1" parent="St-BTR9ovAVdQjKWnuXi-160">
          <mxGeometry x="30" width="150" height="30" as="geometry">
            <mxRectangle width="150" height="30" as="alternateBounds" />
          </mxGeometry>
        </mxCell>
        <mxCell id="St-BTR9ovAVdQjKWnuXi-163" value="" style="shape=tableRow;horizontal=0;startSize=0;swimlaneHead=0;swimlaneBody=0;fillColor=none;collapsible=0;dropTarget=0;points=[[0,0.5],[1,0.5]];portConstraint=eastwest;top=0;left=0;right=0;bottom=0;" vertex="1" parent="St-BTR9ovAVdQjKWnuXi-147">
          <mxGeometry y="180" width="180" height="30" as="geometry" />
        </mxCell>
        <mxCell id="St-BTR9ovAVdQjKWnuXi-164" value="" style="shape=partialRectangle;connectable=0;fillColor=none;top=0;left=0;bottom=0;right=0;editable=1;overflow=hidden;whiteSpace=wrap;html=1;" vertex="1" parent="St-BTR9ovAVdQjKWnuXi-163">
          <mxGeometry width="30" height="30" as="geometry">
            <mxRectangle width="30" height="30" as="alternateBounds" />
          </mxGeometry>
        </mxCell>
        <mxCell id="St-BTR9ovAVdQjKWnuXi-165" value="Arrival Time" style="shape=partialRectangle;connectable=0;fillColor=none;top=0;left=0;bottom=0;right=0;align=left;spacingLeft=6;overflow=hidden;whiteSpace=wrap;html=1;strokeWidth=3;" vertex="1" parent="St-BTR9ovAVdQjKWnuXi-163">
          <mxGeometry x="30" width="150" height="30" as="geometry">
            <mxRectangle width="150" height="30" as="alternateBounds" />
          </mxGeometry>
        </mxCell>
        <mxCell id="St-BTR9ovAVdQjKWnuXi-166" value="" style="shape=tableRow;horizontal=0;startSize=0;swimlaneHead=0;swimlaneBody=0;fillColor=none;collapsible=0;dropTarget=0;points=[[0,0.5],[1,0.5]];portConstraint=eastwest;top=0;left=0;right=0;bottom=0;" vertex="1" parent="St-BTR9ovAVdQjKWnuXi-147">
          <mxGeometry y="210" width="180" height="30" as="geometry" />
        </mxCell>
        <mxCell id="St-BTR9ovAVdQjKWnuXi-167" value="" style="shape=partialRectangle;connectable=0;fillColor=none;top=0;left=0;bottom=0;right=0;editable=1;overflow=hidden;whiteSpace=wrap;html=1;" vertex="1" parent="St-BTR9ovAVdQjKWnuXi-166">
          <mxGeometry width="30" height="30" as="geometry">
            <mxRectangle width="30" height="30" as="alternateBounds" />
          </mxGeometry>
        </mxCell>
        <mxCell id="St-BTR9ovAVdQjKWnuXi-168" value="Spet Time" style="shape=partialRectangle;connectable=0;fillColor=none;top=0;left=0;bottom=0;right=0;align=left;spacingLeft=6;overflow=hidden;whiteSpace=wrap;html=1;strokeWidth=3;" vertex="1" parent="St-BTR9ovAVdQjKWnuXi-166">
          <mxGeometry x="30" width="150" height="30" as="geometry">
            <mxRectangle width="150" height="30" as="alternateBounds" />
          </mxGeometry>
        </mxCell>
        <mxCell id="St-BTR9ovAVdQjKWnuXi-169" style="edgeStyle=orthogonalEdgeStyle;rounded=0;orthogonalLoop=1;jettySize=auto;html=1;entryX=0;entryY=0.5;entryDx=0;entryDy=0;" edge="1" parent="1" source="St-BTR9ovAVdQjKWnuXi-151" target="St-BTR9ovAVdQjKWnuXi-117">
          <mxGeometry relative="1" as="geometry" />
        </mxCell>
        <mxCell id="St-BTR9ovAVdQjKWnuXi-170" style="edgeStyle=orthogonalEdgeStyle;rounded=0;orthogonalLoop=1;jettySize=auto;html=1;exitX=1;exitY=0.5;exitDx=0;exitDy=0;entryX=0;entryY=0.5;entryDx=0;entryDy=0;" edge="1" parent="1" source="St-BTR9ovAVdQjKWnuXi-154" target="St-BTR9ovAVdQjKWnuXi-21">
          <mxGeometry relative="1" as="geometry" />
        </mxCell>
        <mxCell id="St-BTR9ovAVdQjKWnuXi-171" value="&lt;font style=&quot;font-size: 17px; color: rgb(0, 0, 0);&quot;&gt;Emp-Qualifications&lt;/font&gt;" style="shape=table;startSize=30;container=1;collapsible=1;childLayout=tableLayout;fixedRows=1;rowLines=0;fontStyle=1;align=center;resizeLast=1;html=1;strokeWidth=2;fillColor=#76D01B;fontColor=#ffffff;strokeColor=#379000;" vertex="1" parent="1">
          <mxGeometry x="560" y="-295" width="210" height="120" as="geometry" />
        </mxCell>
        <mxCell id="St-BTR9ovAVdQjKWnuXi-172" value="" style="shape=tableRow;horizontal=0;startSize=0;swimlaneHead=0;swimlaneBody=0;fillColor=none;collapsible=0;dropTarget=0;points=[[0,0.5],[1,0.5]];portConstraint=eastwest;top=0;left=0;right=0;bottom=1;" vertex="1" parent="St-BTR9ovAVdQjKWnuXi-171">
          <mxGeometry y="30" width="210" height="30" as="geometry" />
        </mxCell>
        <mxCell id="St-BTR9ovAVdQjKWnuXi-173" value="PK" style="shape=partialRectangle;connectable=0;fillColor=none;top=0;left=0;bottom=0;right=0;fontStyle=1;overflow=hidden;whiteSpace=wrap;html=1;" vertex="1" parent="St-BTR9ovAVdQjKWnuXi-172">
          <mxGeometry width="30" height="30" as="geometry">
            <mxRectangle width="30" height="30" as="alternateBounds" />
          </mxGeometry>
        </mxCell>
        <mxCell id="St-BTR9ovAVdQjKWnuXi-174" value="&lt;span style=&quot;text-align: center; text-wrap-mode: nowrap;&quot;&gt;&lt;font&gt;Qualifications&lt;/font&gt;&lt;/span&gt;, Emp-ID" style="shape=partialRectangle;connectable=0;fillColor=none;top=0;left=0;bottom=0;right=0;align=left;spacingLeft=6;fontStyle=5;overflow=hidden;whiteSpace=wrap;html=1;" vertex="1" parent="St-BTR9ovAVdQjKWnuXi-172">
          <mxGeometry x="30" width="180" height="30" as="geometry">
            <mxRectangle width="180" height="30" as="alternateBounds" />
          </mxGeometry>
        </mxCell>
        <mxCell id="St-BTR9ovAVdQjKWnuXi-175" value="" style="shape=tableRow;horizontal=0;startSize=0;swimlaneHead=0;swimlaneBody=0;fillColor=none;collapsible=0;dropTarget=0;points=[[0,0.5],[1,0.5]];portConstraint=eastwest;top=0;left=0;right=0;bottom=0;" vertex="1" parent="St-BTR9ovAVdQjKWnuXi-171">
          <mxGeometry y="60" width="210" height="30" as="geometry" />
        </mxCell>
        <mxCell id="St-BTR9ovAVdQjKWnuXi-176" value="" style="shape=partialRectangle;connectable=0;fillColor=none;top=0;left=0;bottom=0;right=0;editable=1;overflow=hidden;whiteSpace=wrap;html=1;" vertex="1" parent="St-BTR9ovAVdQjKWnuXi-175">
          <mxGeometry width="30" height="30" as="geometry">
            <mxRectangle width="30" height="30" as="alternateBounds" />
          </mxGeometry>
        </mxCell>
        <mxCell id="St-BTR9ovAVdQjKWnuXi-177" value="&lt;span style=&quot;font-weight: 700; text-align: center; text-wrap-mode: nowrap;&quot;&gt;&lt;font&gt;Qualifications&lt;/font&gt;&lt;/span&gt;" style="shape=partialRectangle;connectable=0;fillColor=none;top=0;left=0;bottom=0;right=0;align=left;spacingLeft=6;overflow=hidden;whiteSpace=wrap;html=1;" vertex="1" parent="St-BTR9ovAVdQjKWnuXi-175">
          <mxGeometry x="30" width="180" height="30" as="geometry">
            <mxRectangle width="180" height="30" as="alternateBounds" />
          </mxGeometry>
        </mxCell>
        <mxCell id="St-BTR9ovAVdQjKWnuXi-178" value="" style="shape=tableRow;horizontal=0;startSize=0;swimlaneHead=0;swimlaneBody=0;fillColor=none;collapsible=0;dropTarget=0;points=[[0,0.5],[1,0.5]];portConstraint=eastwest;top=0;left=0;right=0;bottom=0;" vertex="1" parent="St-BTR9ovAVdQjKWnuXi-171">
          <mxGeometry y="90" width="210" height="30" as="geometry" />
        </mxCell>
        <mxCell id="St-BTR9ovAVdQjKWnuXi-179" value="" style="shape=partialRectangle;connectable=0;fillColor=none;top=0;left=0;bottom=0;right=0;editable=1;overflow=hidden;whiteSpace=wrap;html=1;" vertex="1" parent="St-BTR9ovAVdQjKWnuXi-178">
          <mxGeometry width="30" height="30" as="geometry">
            <mxRectangle width="30" height="30" as="alternateBounds" />
          </mxGeometry>
        </mxCell>
        <mxCell id="St-BTR9ovAVdQjKWnuXi-180" value="&lt;font color=&quot;#000099&quot;&gt;&lt;b&gt;Emp-ID&lt;/b&gt;&lt;/font&gt;" style="shape=partialRectangle;connectable=0;fillColor=none;top=0;left=0;bottom=0;right=0;align=left;spacingLeft=6;overflow=hidden;whiteSpace=wrap;html=1;" vertex="1" parent="St-BTR9ovAVdQjKWnuXi-178">
          <mxGeometry x="30" width="180" height="30" as="geometry">
            <mxRectangle width="180" height="30" as="alternateBounds" />
          </mxGeometry>
        </mxCell>
        <mxCell id="St-BTR9ovAVdQjKWnuXi-181" style="edgeStyle=orthogonalEdgeStyle;rounded=0;orthogonalLoop=1;jettySize=auto;html=1;entryX=1;entryY=0.5;entryDx=0;entryDy=0;" edge="1" parent="1" source="St-BTR9ovAVdQjKWnuXi-178" target="St-BTR9ovAVdQjKWnuXi-64">
          <mxGeometry relative="1" as="geometry" />
        </mxCell>
        <mxCell id="St-BTR9ovAVdQjKWnuXi-182" value="&lt;font style=&quot;font-size: 15px;&quot;&gt;Airline&lt;/font&gt;" style="rounded=1;arcSize=10;whiteSpace=wrap;html=1;align=center;strokeWidth=2;" vertex="1" parent="1">
          <mxGeometry x="15" y="-890" width="120" height="40" as="geometry" />
        </mxCell>
        <mxCell id="St-BTR9ovAVdQjKWnuXi-183" style="edgeStyle=orthogonalEdgeStyle;rounded=0;orthogonalLoop=1;jettySize=auto;html=1;entryX=0.5;entryY=0;entryDx=0;entryDy=0;endArrow=none;startFill=0;exitX=0.5;exitY=1;exitDx=0;exitDy=0;" edge="1" parent="1" source="St-BTR9ovAVdQjKWnuXi-184" target="St-BTR9ovAVdQjKWnuXi-182">
          <mxGeometry relative="1" as="geometry" />
        </mxCell>
        <mxCell id="St-BTR9ovAVdQjKWnuXi-184" value="&lt;u&gt;Airline-ID&lt;/u&gt;" style="ellipse;whiteSpace=wrap;html=1;align=center;strokeWidth=2;" vertex="1" parent="1">
          <mxGeometry x="-75" y="-970" width="70" height="40" as="geometry" />
        </mxCell>
        <mxCell id="St-BTR9ovAVdQjKWnuXi-185" style="edgeStyle=orthogonalEdgeStyle;rounded=0;orthogonalLoop=1;jettySize=auto;html=1;endArrow=none;startFill=0;exitX=0.5;exitY=1;exitDx=0;exitDy=0;" edge="1" parent="1" source="St-BTR9ovAVdQjKWnuXi-186">
          <mxGeometry relative="1" as="geometry">
            <mxPoint x="74.99999999999989" y="-890" as="targetPoint" />
          </mxGeometry>
        </mxCell>
        <mxCell id="St-BTR9ovAVdQjKWnuXi-186" value="Name" style="ellipse;whiteSpace=wrap;html=1;align=center;strokeWidth=2;" vertex="1" parent="1">
          <mxGeometry x="-25" y="-1000" width="50" height="30" as="geometry" />
        </mxCell>
        <mxCell id="St-BTR9ovAVdQjKWnuXi-187" style="edgeStyle=orthogonalEdgeStyle;rounded=0;orthogonalLoop=1;jettySize=auto;html=1;entryX=0.5;entryY=0;entryDx=0;entryDy=0;endArrow=none;startFill=0;" edge="1" parent="1" source="St-BTR9ovAVdQjKWnuXi-188" target="St-BTR9ovAVdQjKWnuXi-182">
          <mxGeometry relative="1" as="geometry" />
        </mxCell>
        <mxCell id="St-BTR9ovAVdQjKWnuXi-188" value="Address" style="ellipse;whiteSpace=wrap;html=1;align=center;strokeWidth=2;" vertex="1" parent="1">
          <mxGeometry x="45" y="-1000" width="60" height="30" as="geometry" />
        </mxCell>
        <mxCell id="St-BTR9ovAVdQjKWnuXi-189" style="edgeStyle=orthogonalEdgeStyle;rounded=0;orthogonalLoop=1;jettySize=auto;html=1;endArrow=none;startFill=0;exitX=0.5;exitY=1;exitDx=0;exitDy=0;" edge="1" parent="1" source="St-BTR9ovAVdQjKWnuXi-190" target="St-BTR9ovAVdQjKWnuXi-182">
          <mxGeometry relative="1" as="geometry">
            <Array as="points">
              <mxPoint x="195" y="-910" />
              <mxPoint x="75" y="-910" />
            </Array>
          </mxGeometry>
        </mxCell>
        <mxCell id="St-BTR9ovAVdQjKWnuXi-190" value="Contact-Person" style="ellipse;whiteSpace=wrap;html=1;align=center;strokeWidth=2;" vertex="1" parent="1">
          <mxGeometry x="155" y="-970" width="100" height="40" as="geometry" />
        </mxCell>
        <mxCell id="St-BTR9ovAVdQjKWnuXi-191" style="edgeStyle=orthogonalEdgeStyle;rounded=0;orthogonalLoop=1;jettySize=auto;html=1;entryX=0.5;entryY=0;entryDx=0;entryDy=0;endArrow=none;startFill=0;exitX=0.5;exitY=1;exitDx=0;exitDy=0;" edge="1" parent="1" source="St-BTR9ovAVdQjKWnuXi-192" target="St-BTR9ovAVdQjKWnuXi-182">
          <mxGeometry relative="1" as="geometry">
            <mxPoint x="135.00000000000023" y="-973" as="sourcePoint" />
            <Array as="points">
              <mxPoint x="140" y="-930" />
              <mxPoint x="75" y="-930" />
            </Array>
          </mxGeometry>
        </mxCell>
        <mxCell id="St-BTR9ovAVdQjKWnuXi-192" value="Numbers" style="ellipse;shape=doubleEllipse;margin=3;whiteSpace=wrap;html=1;align=center;" vertex="1" parent="1">
          <mxGeometry x="115" y="-1010" width="70" height="40" as="geometry" />
        </mxCell>
        <mxCell id="St-BTR9ovAVdQjKWnuXi-193" value="&lt;font style=&quot;font-size: 15px;&quot;&gt;Employee&lt;/font&gt;" style="rounded=1;arcSize=10;whiteSpace=wrap;html=1;align=center;strokeWidth=2;" vertex="1" parent="1">
          <mxGeometry x="420" y="-890" width="120" height="40" as="geometry" />
        </mxCell>
        <mxCell id="St-BTR9ovAVdQjKWnuXi-194" style="edgeStyle=orthogonalEdgeStyle;rounded=0;orthogonalLoop=1;jettySize=auto;html=1;entryX=0.5;entryY=0;entryDx=0;entryDy=0;endArrow=none;startFill=0;exitX=0.5;exitY=1;exitDx=0;exitDy=0;" edge="1" parent="1" target="St-BTR9ovAVdQjKWnuXi-193">
          <mxGeometry relative="1" as="geometry">
            <mxPoint x="365" y="-930" as="sourcePoint" />
          </mxGeometry>
        </mxCell>
        <mxCell id="St-BTR9ovAVdQjKWnuXi-195" value="&lt;u&gt;Emp-ID&lt;/u&gt;" style="ellipse;whiteSpace=wrap;html=1;align=center;strokeWidth=2;" vertex="1" parent="1">
          <mxGeometry x="330" y="-965" width="70" height="40" as="geometry" />
        </mxCell>
        <mxCell id="St-BTR9ovAVdQjKWnuXi-196" style="edgeStyle=orthogonalEdgeStyle;rounded=0;orthogonalLoop=1;jettySize=auto;html=1;endArrow=none;startFill=0;exitX=0.5;exitY=1;exitDx=0;exitDy=0;" edge="1" parent="1" source="St-BTR9ovAVdQjKWnuXi-197">
          <mxGeometry relative="1" as="geometry">
            <mxPoint x="480" y="-890" as="targetPoint" />
          </mxGeometry>
        </mxCell>
        <mxCell id="St-BTR9ovAVdQjKWnuXi-197" value="Name" style="ellipse;whiteSpace=wrap;html=1;align=center;strokeWidth=2;" vertex="1" parent="1">
          <mxGeometry x="380" y="-1000" width="50" height="30" as="geometry" />
        </mxCell>
        <mxCell id="St-BTR9ovAVdQjKWnuXi-198" style="edgeStyle=orthogonalEdgeStyle;rounded=0;orthogonalLoop=1;jettySize=auto;html=1;entryX=0.5;entryY=0;entryDx=0;entryDy=0;endArrow=none;startFill=0;" edge="1" parent="1" source="St-BTR9ovAVdQjKWnuXi-199" target="St-BTR9ovAVdQjKWnuXi-193">
          <mxGeometry relative="1" as="geometry">
            <Array as="points">
              <mxPoint x="450" y="-930" />
              <mxPoint x="480" y="-930" />
            </Array>
          </mxGeometry>
        </mxCell>
        <mxCell id="St-BTR9ovAVdQjKWnuXi-199" value="Address" style="ellipse;whiteSpace=wrap;html=1;align=center;strokeWidth=2;" vertex="1" parent="1">
          <mxGeometry x="410" y="-970" width="60" height="30" as="geometry" />
        </mxCell>
        <mxCell id="St-BTR9ovAVdQjKWnuXi-200" style="edgeStyle=orthogonalEdgeStyle;rounded=0;orthogonalLoop=1;jettySize=auto;html=1;endArrow=none;startFill=0;exitX=0.5;exitY=1;exitDx=0;exitDy=0;" edge="1" parent="1" target="St-BTR9ovAVdQjKWnuXi-193">
          <mxGeometry relative="1" as="geometry">
            <Array as="points">
              <mxPoint x="630" y="-910" />
              <mxPoint x="480" y="-910" />
            </Array>
            <mxPoint x="620" y="-930" as="sourcePoint" />
          </mxGeometry>
        </mxCell>
        <mxCell id="St-BTR9ovAVdQjKWnuXi-201" style="edgeStyle=orthogonalEdgeStyle;rounded=0;orthogonalLoop=1;jettySize=auto;html=1;entryX=0.5;entryY=0;entryDx=0;entryDy=0;endArrow=none;startFill=0;exitX=0.5;exitY=1;exitDx=0;exitDy=0;" edge="1" parent="1" source="St-BTR9ovAVdQjKWnuXi-204" target="St-BTR9ovAVdQjKWnuXi-193">
          <mxGeometry relative="1" as="geometry">
            <mxPoint x="575" y="-970" as="sourcePoint" />
            <Array as="points">
              <mxPoint x="560" y="-930" />
              <mxPoint x="480" y="-930" />
            </Array>
          </mxGeometry>
        </mxCell>
        <mxCell id="St-BTR9ovAVdQjKWnuXi-202" style="edgeStyle=orthogonalEdgeStyle;rounded=0;orthogonalLoop=1;jettySize=auto;html=1;entryX=0.5;entryY=0;entryDx=0;entryDy=0;endArrow=none;startFill=0;" edge="1" parent="1" source="St-BTR9ovAVdQjKWnuXi-203" target="St-BTR9ovAVdQjKWnuXi-193">
          <mxGeometry relative="1" as="geometry">
            <Array as="points">
              <mxPoint x="520" y="-930" />
              <mxPoint x="480" y="-930" />
            </Array>
          </mxGeometry>
        </mxCell>
        <mxCell id="St-BTR9ovAVdQjKWnuXi-203" value="Gender" style="ellipse;whiteSpace=wrap;html=1;align=center;strokeWidth=2;" vertex="1" parent="1">
          <mxGeometry x="490" y="-970" width="60" height="30" as="geometry" />
        </mxCell>
        <mxCell id="St-BTR9ovAVdQjKWnuXi-204" value="Birthday" style="ellipse;whiteSpace=wrap;html=1;align=center;strokeWidth=2;" vertex="1" parent="1">
          <mxGeometry x="530" y="-1000" width="60" height="30" as="geometry" />
        </mxCell>
        <mxCell id="St-BTR9ovAVdQjKWnuXi-205" style="edgeStyle=orthogonalEdgeStyle;rounded=0;orthogonalLoop=1;jettySize=auto;html=1;entryX=0.5;entryY=0;entryDx=0;entryDy=0;endArrow=none;startFill=0;" edge="1" parent="1" source="St-BTR9ovAVdQjKWnuXi-206" target="St-BTR9ovAVdQjKWnuXi-193">
          <mxGeometry relative="1" as="geometry" />
        </mxCell>
        <mxCell id="St-BTR9ovAVdQjKWnuXi-206" value="Position" style="ellipse;whiteSpace=wrap;html=1;align=center;strokeWidth=2;" vertex="1" parent="1">
          <mxGeometry x="450" y="-1010" width="60" height="30" as="geometry" />
        </mxCell>
        <mxCell id="St-BTR9ovAVdQjKWnuXi-207" style="edgeStyle=orthogonalEdgeStyle;rounded=0;orthogonalLoop=1;jettySize=auto;html=1;endArrow=none;startFill=0;entryX=0.5;entryY=0;entryDx=0;entryDy=0;" edge="1" parent="1" source="St-BTR9ovAVdQjKWnuXi-208" target="St-BTR9ovAVdQjKWnuXi-204">
          <mxGeometry relative="1" as="geometry">
            <mxPoint x="560" y="-1010" as="targetPoint" />
          </mxGeometry>
        </mxCell>
        <mxCell id="St-BTR9ovAVdQjKWnuXi-208" value="DD" style="ellipse;whiteSpace=wrap;html=1;align=center;strokeWidth=2;" vertex="1" parent="1">
          <mxGeometry x="540" y="-1050" width="40" height="30" as="geometry" />
        </mxCell>
        <mxCell id="St-BTR9ovAVdQjKWnuXi-209" style="edgeStyle=orthogonalEdgeStyle;rounded=0;orthogonalLoop=1;jettySize=auto;html=1;entryX=0;entryY=0;entryDx=0;entryDy=0;endArrow=none;startFill=0;" edge="1" parent="1" source="St-BTR9ovAVdQjKWnuXi-210" target="St-BTR9ovAVdQjKWnuXi-204">
          <mxGeometry relative="1" as="geometry" />
        </mxCell>
        <mxCell id="St-BTR9ovAVdQjKWnuXi-210" value="MM" style="ellipse;whiteSpace=wrap;html=1;align=center;strokeWidth=2;" vertex="1" parent="1">
          <mxGeometry x="500" y="-1060" width="40" height="30" as="geometry" />
        </mxCell>
        <mxCell id="St-BTR9ovAVdQjKWnuXi-211" style="edgeStyle=orthogonalEdgeStyle;rounded=0;orthogonalLoop=1;jettySize=auto;html=1;entryX=1;entryY=0;entryDx=0;entryDy=0;endArrow=none;startFill=0;" edge="1" parent="1" source="St-BTR9ovAVdQjKWnuXi-212" target="St-BTR9ovAVdQjKWnuXi-204">
          <mxGeometry relative="1" as="geometry" />
        </mxCell>
        <mxCell id="St-BTR9ovAVdQjKWnuXi-212" value="YYYY" style="ellipse;whiteSpace=wrap;html=1;align=center;strokeWidth=2;" vertex="1" parent="1">
          <mxGeometry x="580" y="-1060" width="40" height="30" as="geometry" />
        </mxCell>
        <mxCell id="St-BTR9ovAVdQjKWnuXi-213" value="&lt;font style=&quot;font-size: 15px;&quot;&gt;Aircraft&lt;/font&gt;" style="rounded=1;arcSize=10;whiteSpace=wrap;html=1;align=center;strokeWidth=2;" vertex="1" parent="1">
          <mxGeometry x="-380" y="-890" width="120" height="40" as="geometry" />
        </mxCell>
        <mxCell id="St-BTR9ovAVdQjKWnuXi-214" style="edgeStyle=orthogonalEdgeStyle;rounded=0;orthogonalLoop=1;jettySize=auto;html=1;endArrow=none;startFill=0;exitX=0.5;exitY=1;exitDx=0;exitDy=0;" edge="1" parent="1" source="St-BTR9ovAVdQjKWnuXi-215">
          <mxGeometry relative="1" as="geometry">
            <mxPoint x="-320.0000000000001" y="-890" as="targetPoint" />
            <Array as="points">
              <mxPoint x="-395" y="-910" />
              <mxPoint x="-319" y="-910" />
              <mxPoint x="-319" y="-890" />
            </Array>
          </mxGeometry>
        </mxCell>
        <mxCell id="St-BTR9ovAVdQjKWnuXi-215" value="Model" style="ellipse;whiteSpace=wrap;html=1;align=center;strokeWidth=2;" vertex="1" parent="1">
          <mxGeometry x="-420" y="-960" width="50" height="30" as="geometry" />
        </mxCell>
        <mxCell id="St-BTR9ovAVdQjKWnuXi-216" style="edgeStyle=orthogonalEdgeStyle;rounded=0;orthogonalLoop=1;jettySize=auto;html=1;entryX=0.5;entryY=0;entryDx=0;entryDy=0;endArrow=none;startFill=0;" edge="1" parent="1" source="St-BTR9ovAVdQjKWnuXi-217" target="St-BTR9ovAVdQjKWnuXi-213">
          <mxGeometry relative="1" as="geometry" />
        </mxCell>
        <mxCell id="St-BTR9ovAVdQjKWnuXi-217" value="&lt;u&gt;Aircraft-ID&lt;/u&gt;" style="ellipse;whiteSpace=wrap;html=1;align=center;strokeWidth=2;" vertex="1" parent="1">
          <mxGeometry x="-355" y="-970" width="70" height="30" as="geometry" />
        </mxCell>
        <mxCell id="St-BTR9ovAVdQjKWnuXi-218" style="edgeStyle=orthogonalEdgeStyle;rounded=0;orthogonalLoop=1;jettySize=auto;html=1;entryX=0.5;entryY=0;entryDx=0;entryDy=0;endArrow=none;startFill=0;" edge="1" parent="1" source="St-BTR9ovAVdQjKWnuXi-219" target="St-BTR9ovAVdQjKWnuXi-213">
          <mxGeometry relative="1" as="geometry" />
        </mxCell>
        <mxCell id="St-BTR9ovAVdQjKWnuXi-219" value="Capacity" style="ellipse;whiteSpace=wrap;html=1;align=center;strokeWidth=2;" vertex="1" parent="1">
          <mxGeometry x="-270" y="-960" width="60" height="30" as="geometry" />
        </mxCell>
        <mxCell id="St-BTR9ovAVdQjKWnuXi-220" value="&lt;font style=&quot;font-size: 15px;&quot;&gt;Route&lt;/font&gt;" style="rounded=1;arcSize=10;whiteSpace=wrap;html=1;align=center;strokeWidth=2;" vertex="1" parent="1">
          <mxGeometry x="-175" y="-660" width="120" height="40" as="geometry" />
        </mxCell>
        <mxCell id="St-BTR9ovAVdQjKWnuXi-221" style="edgeStyle=orthogonalEdgeStyle;rounded=0;orthogonalLoop=1;jettySize=auto;html=1;entryX=0.5;entryY=0;entryDx=0;entryDy=0;endArrow=none;startFill=0;exitX=0.5;exitY=1;exitDx=0;exitDy=0;" edge="1" parent="1" source="St-BTR9ovAVdQjKWnuXi-222" target="St-BTR9ovAVdQjKWnuXi-220">
          <mxGeometry relative="1" as="geometry">
            <Array as="points">
              <mxPoint x="-235" y="-680" />
              <mxPoint x="-115" y="-680" />
            </Array>
          </mxGeometry>
        </mxCell>
        <mxCell id="St-BTR9ovAVdQjKWnuXi-222" value="&lt;u&gt;Route-ID&lt;/u&gt;" style="ellipse;whiteSpace=wrap;html=1;align=center;strokeWidth=2;" vertex="1" parent="1">
          <mxGeometry x="-270" y="-735" width="70" height="40" as="geometry" />
        </mxCell>
        <mxCell id="St-BTR9ovAVdQjKWnuXi-223" style="edgeStyle=orthogonalEdgeStyle;rounded=0;orthogonalLoop=1;jettySize=auto;html=1;endArrow=none;startFill=0;exitX=0.5;exitY=1;exitDx=0;exitDy=0;" edge="1" parent="1" source="St-BTR9ovAVdQjKWnuXi-224">
          <mxGeometry relative="1" as="geometry">
            <mxPoint x="-115.00000000000011" y="-660" as="targetPoint" />
          </mxGeometry>
        </mxCell>
        <mxCell id="St-BTR9ovAVdQjKWnuXi-224" value="Origin" style="ellipse;whiteSpace=wrap;html=1;align=center;strokeWidth=2;" vertex="1" parent="1">
          <mxGeometry x="-215" y="-770" width="50" height="30" as="geometry" />
        </mxCell>
        <mxCell id="St-BTR9ovAVdQjKWnuXi-225" style="edgeStyle=orthogonalEdgeStyle;rounded=0;orthogonalLoop=1;jettySize=auto;html=1;endArrow=none;startFill=0;exitX=0.5;exitY=1;exitDx=0;exitDy=0;" edge="1" parent="1" source="St-BTR9ovAVdQjKWnuXi-226" target="St-BTR9ovAVdQjKWnuXi-220">
          <mxGeometry relative="1" as="geometry">
            <Array as="points">
              <mxPoint x="15" y="-680" />
              <mxPoint x="-115" y="-680" />
            </Array>
          </mxGeometry>
        </mxCell>
        <mxCell id="St-BTR9ovAVdQjKWnuXi-226" value="Distination" style="ellipse;whiteSpace=wrap;html=1;align=center;strokeWidth=2;" vertex="1" parent="1">
          <mxGeometry x="-25" y="-735" width="80" height="40" as="geometry" />
        </mxCell>
        <mxCell id="St-BTR9ovAVdQjKWnuXi-227" style="edgeStyle=orthogonalEdgeStyle;rounded=0;orthogonalLoop=1;jettySize=auto;html=1;entryX=0.5;entryY=0;entryDx=0;entryDy=0;endArrow=none;startFill=0;exitX=0.5;exitY=1;exitDx=0;exitDy=0;" edge="1" parent="1" source="St-BTR9ovAVdQjKWnuXi-230" target="St-BTR9ovAVdQjKWnuXi-220">
          <mxGeometry relative="1" as="geometry">
            <mxPoint x="-35" y="-740" as="sourcePoint" />
            <Array as="points">
              <mxPoint x="-35" y="-745" />
              <mxPoint x="-35" y="-700" />
              <mxPoint x="-115" y="-700" />
            </Array>
          </mxGeometry>
        </mxCell>
        <mxCell id="St-BTR9ovAVdQjKWnuXi-228" style="edgeStyle=orthogonalEdgeStyle;rounded=0;orthogonalLoop=1;jettySize=auto;html=1;entryX=0.5;entryY=0;entryDx=0;entryDy=0;endArrow=none;startFill=0;" edge="1" parent="1" source="St-BTR9ovAVdQjKWnuXi-229" target="St-BTR9ovAVdQjKWnuXi-220">
          <mxGeometry relative="1" as="geometry" />
        </mxCell>
        <mxCell id="St-BTR9ovAVdQjKWnuXi-229" value="Distance" style="ellipse;whiteSpace=wrap;html=1;align=center;strokeWidth=2;" vertex="1" parent="1">
          <mxGeometry x="-145" y="-780" width="60" height="30" as="geometry" />
        </mxCell>
        <mxCell id="St-BTR9ovAVdQjKWnuXi-230" value="Classification" style="ellipse;shape=doubleEllipse;margin=3;whiteSpace=wrap;html=1;align=center;" vertex="1" parent="1">
          <mxGeometry x="-75" y="-775" width="90" height="40" as="geometry" />
        </mxCell>
        <mxCell id="St-BTR9ovAVdQjKWnuXi-231" value="&lt;font style=&quot;font-size: 15px;&quot;&gt;Crew&lt;/font&gt;" style="shape=ext;margin=3;double=1;whiteSpace=wrap;html=1;align=center;strokeWidth=2;" vertex="1" parent="1">
          <mxGeometry x="-740" y="-890" width="120" height="40" as="geometry" />
        </mxCell>
        <mxCell id="St-BTR9ovAVdQjKWnuXi-232" style="edgeStyle=orthogonalEdgeStyle;rounded=0;orthogonalLoop=1;jettySize=auto;html=1;endArrow=none;startFill=0;" edge="1" parent="1" source="St-BTR9ovAVdQjKWnuXi-233" target="St-BTR9ovAVdQjKWnuXi-231">
          <mxGeometry relative="1" as="geometry" />
        </mxCell>
        <mxCell id="St-BTR9ovAVdQjKWnuXi-233" value="Pilot" style="ellipse;whiteSpace=wrap;html=1;align=center;strokeWidth=2;" vertex="1" parent="1">
          <mxGeometry x="-790" y="-960" width="60" height="30" as="geometry" />
        </mxCell>
        <mxCell id="St-BTR9ovAVdQjKWnuXi-234" style="edgeStyle=orthogonalEdgeStyle;rounded=0;orthogonalLoop=1;jettySize=auto;html=1;entryX=0.5;entryY=0;entryDx=0;entryDy=0;endArrow=none;endFill=1;startFill=0;" edge="1" parent="1" source="St-BTR9ovAVdQjKWnuXi-235" target="St-BTR9ovAVdQjKWnuXi-231">
          <mxGeometry relative="1" as="geometry">
            <Array as="points">
              <mxPoint x="-720" y="-925" />
              <mxPoint x="-680" y="-925" />
            </Array>
          </mxGeometry>
        </mxCell>
        <mxCell id="St-BTR9ovAVdQjKWnuXi-235" value="Assistant" style="ellipse;whiteSpace=wrap;html=1;align=center;strokeWidth=2;" vertex="1" parent="1">
          <mxGeometry x="-750" y="-990" width="60" height="30" as="geometry" />
        </mxCell>
        <mxCell id="St-BTR9ovAVdQjKWnuXi-236" style="edgeStyle=orthogonalEdgeStyle;rounded=0;orthogonalLoop=1;jettySize=auto;html=1;endArrow=none;startFill=0;exitX=0.5;exitY=1;exitDx=0;exitDy=0;" edge="1" parent="1" source="St-BTR9ovAVdQjKWnuXi-237" target="St-BTR9ovAVdQjKWnuXi-231">
          <mxGeometry relative="1" as="geometry">
            <Array as="points">
              <mxPoint x="-600" y="-910" />
              <mxPoint x="-680" y="-910" />
            </Array>
          </mxGeometry>
        </mxCell>
        <mxCell id="St-BTR9ovAVdQjKWnuXi-237" value="Hostes2" style="ellipse;whiteSpace=wrap;html=1;align=center;strokeWidth=2;" vertex="1" parent="1">
          <mxGeometry x="-630" y="-960" width="60" height="30" as="geometry" />
        </mxCell>
        <mxCell id="St-BTR9ovAVdQjKWnuXi-238" style="edgeStyle=orthogonalEdgeStyle;rounded=0;orthogonalLoop=1;jettySize=auto;html=1;entryX=0.5;entryY=0;entryDx=0;entryDy=0;endArrow=none;startFill=0;" edge="1" parent="1" source="St-BTR9ovAVdQjKWnuXi-239" target="St-BTR9ovAVdQjKWnuXi-231">
          <mxGeometry relative="1" as="geometry" />
        </mxCell>
        <mxCell id="St-BTR9ovAVdQjKWnuXi-239" value="Hostes1" style="ellipse;whiteSpace=wrap;html=1;align=center;strokeWidth=2;" vertex="1" parent="1">
          <mxGeometry x="-670" y="-990" width="60" height="30" as="geometry" />
        </mxCell>
        <mxCell id="St-BTR9ovAVdQjKWnuXi-240" style="edgeStyle=orthogonalEdgeStyle;rounded=0;orthogonalLoop=1;jettySize=auto;html=1;endArrow=none;startFill=0;exitX=0.5;exitY=1;exitDx=0;exitDy=0;" edge="1" parent="1" source="St-BTR9ovAVdQjKWnuXi-241">
          <mxGeometry relative="1" as="geometry">
            <mxPoint x="465.0000000000002" y="-700" as="targetPoint" />
            <Array as="points">
              <mxPoint x="385" y="-700" />
            </Array>
          </mxGeometry>
        </mxCell>
        <mxCell id="St-BTR9ovAVdQjKWnuXi-241" value="Date" style="ellipse;whiteSpace=wrap;html=1;align=center;strokeWidth=2;" vertex="1" parent="1">
          <mxGeometry x="350" y="-740" width="60" height="30" as="geometry" />
        </mxCell>
        <mxCell id="St-BTR9ovAVdQjKWnuXi-242" style="edgeStyle=orthogonalEdgeStyle;rounded=0;orthogonalLoop=1;jettySize=auto;html=1;entryX=0.5;entryY=0;entryDx=0;entryDy=0;endArrow=none;endFill=1;startFill=0;" edge="1" parent="1" source="St-BTR9ovAVdQjKWnuXi-243">
          <mxGeometry relative="1" as="geometry">
            <Array as="points">
              <mxPoint x="425" y="-710" />
              <mxPoint x="465" y="-710" />
            </Array>
            <mxPoint x="465" y="-700" as="targetPoint" />
          </mxGeometry>
        </mxCell>
        <mxCell id="St-BTR9ovAVdQjKWnuXi-243" value="&lt;u&gt;Trans-ID&lt;/u&gt;" style="ellipse;whiteSpace=wrap;html=1;align=center;strokeWidth=2;" vertex="1" parent="1">
          <mxGeometry x="395" y="-770" width="60" height="30" as="geometry" />
        </mxCell>
        <mxCell id="St-BTR9ovAVdQjKWnuXi-244" style="edgeStyle=orthogonalEdgeStyle;rounded=0;orthogonalLoop=1;jettySize=auto;html=1;endArrow=none;startFill=0;exitX=0.5;exitY=1;exitDx=0;exitDy=0;entryX=0.5;entryY=0;entryDx=0;entryDy=0;" edge="1" parent="1" source="St-BTR9ovAVdQjKWnuXi-245" target="St-BTR9ovAVdQjKWnuXi-248">
          <mxGeometry relative="1" as="geometry">
            <Array as="points">
              <mxPoint x="545" y="-700" />
              <mxPoint x="465" y="-700" />
              <mxPoint x="465" y="-680" />
            </Array>
            <mxPoint x="465.0000000000002" y="-700" as="targetPoint" />
          </mxGeometry>
        </mxCell>
        <mxCell id="St-BTR9ovAVdQjKWnuXi-245" value="Amount" style="ellipse;whiteSpace=wrap;html=1;align=center;strokeWidth=2;" vertex="1" parent="1">
          <mxGeometry x="515" y="-740" width="60" height="30" as="geometry" />
        </mxCell>
        <mxCell id="St-BTR9ovAVdQjKWnuXi-246" style="edgeStyle=orthogonalEdgeStyle;rounded=0;orthogonalLoop=1;jettySize=auto;html=1;entryX=0.5;entryY=0;entryDx=0;entryDy=0;endArrow=none;startFill=0;exitX=0.5;exitY=1;exitDx=0;exitDy=0;" edge="1" parent="1" source="St-BTR9ovAVdQjKWnuXi-247" target="St-BTR9ovAVdQjKWnuXi-248">
          <mxGeometry relative="1" as="geometry">
            <mxPoint x="465" y="-700" as="targetPoint" />
            <Array as="points">
              <mxPoint x="495" y="-710" />
              <mxPoint x="470" y="-710" />
            </Array>
          </mxGeometry>
        </mxCell>
        <mxCell id="St-BTR9ovAVdQjKWnuXi-247" value="Description" style="ellipse;whiteSpace=wrap;html=1;align=center;strokeWidth=2;" vertex="1" parent="1">
          <mxGeometry x="465" y="-770" width="70" height="30" as="geometry" />
        </mxCell>
        <mxCell id="St-BTR9ovAVdQjKWnuXi-248" value="&lt;font style=&quot;font-size: 15px;&quot;&gt;Transaction&lt;/font&gt;" style="rounded=1;arcSize=10;whiteSpace=wrap;html=1;align=center;strokeWidth=2;" vertex="1" parent="1">
          <mxGeometry x="410" y="-680" width="120" height="40" as="geometry" />
        </mxCell>
        <mxCell id="St-BTR9ovAVdQjKWnuXi-249" style="edgeStyle=orthogonalEdgeStyle;rounded=0;orthogonalLoop=1;jettySize=auto;html=1;entryX=0;entryY=0.5;entryDx=0;entryDy=0;exitX=1;exitY=0.5;exitDx=0;exitDy=0;" edge="1" parent="1" source="St-BTR9ovAVdQjKWnuXi-253" target="St-BTR9ovAVdQjKWnuXi-182">
          <mxGeometry relative="1" as="geometry">
            <mxPoint x="-75" y="-870" as="sourcePoint" />
          </mxGeometry>
        </mxCell>
        <mxCell id="St-BTR9ovAVdQjKWnuXi-250" value="&lt;font style=&quot;font-size: 13px;&quot;&gt;&lt;b&gt;1&lt;/b&gt;&lt;/font&gt;" style="edgeLabel;html=1;align=center;verticalAlign=middle;resizable=0;points=[];" vertex="1" connectable="0" parent="St-BTR9ovAVdQjKWnuXi-249">
          <mxGeometry x="0.2889" relative="1" as="geometry">
            <mxPoint as="offset" />
          </mxGeometry>
        </mxCell>
        <mxCell id="St-BTR9ovAVdQjKWnuXi-251" style="edgeStyle=orthogonalEdgeStyle;rounded=0;orthogonalLoop=1;jettySize=auto;html=1;entryX=1;entryY=0.5;entryDx=0;entryDy=0;shape=link;" edge="1" parent="1" source="St-BTR9ovAVdQjKWnuXi-253" target="St-BTR9ovAVdQjKWnuXi-213">
          <mxGeometry relative="1" as="geometry" />
        </mxCell>
        <mxCell id="St-BTR9ovAVdQjKWnuXi-252" value="&lt;font style=&quot;font-size: 13px;&quot;&gt;&lt;b&gt;M&lt;/b&gt;&lt;/font&gt;" style="edgeLabel;html=1;align=center;verticalAlign=middle;resizable=0;points=[];" vertex="1" connectable="0" parent="St-BTR9ovAVdQjKWnuXi-251">
          <mxGeometry x="0.3417" y="-2" relative="1" as="geometry">
            <mxPoint as="offset" />
          </mxGeometry>
        </mxCell>
        <mxCell id="St-BTR9ovAVdQjKWnuXi-253" value="Has" style="shape=rhombus;perimeter=rhombusPerimeter;whiteSpace=wrap;html=1;align=center;strokeWidth=2;" vertex="1" parent="1">
          <mxGeometry x="-165" y="-895" width="80" height="50" as="geometry" />
        </mxCell>
        <mxCell id="St-BTR9ovAVdQjKWnuXi-254" style="edgeStyle=orthogonalEdgeStyle;rounded=0;orthogonalLoop=1;jettySize=auto;html=1;entryX=1;entryY=0.5;entryDx=0;entryDy=0;shape=link;" edge="1" parent="1" target="St-BTR9ovAVdQjKWnuXi-182">
          <mxGeometry relative="1" as="geometry">
            <mxPoint x="255" y="-870" as="sourcePoint" />
          </mxGeometry>
        </mxCell>
        <mxCell id="St-BTR9ovAVdQjKWnuXi-255" value="&lt;font style=&quot;font-size: 13px;&quot;&gt;&lt;b&gt;1&lt;/b&gt;&lt;/font&gt;" style="edgeLabel;html=1;align=center;verticalAlign=middle;resizable=0;points=[];" vertex="1" connectable="0" parent="St-BTR9ovAVdQjKWnuXi-254">
          <mxGeometry x="0.5889" y="1" relative="1" as="geometry">
            <mxPoint as="offset" />
          </mxGeometry>
        </mxCell>
        <mxCell id="St-BTR9ovAVdQjKWnuXi-256" style="edgeStyle=orthogonalEdgeStyle;rounded=0;orthogonalLoop=1;jettySize=auto;html=1;entryX=0;entryY=0.5;entryDx=0;entryDy=0;shape=link;" edge="1" parent="1" source="St-BTR9ovAVdQjKWnuXi-258" target="St-BTR9ovAVdQjKWnuXi-193">
          <mxGeometry relative="1" as="geometry" />
        </mxCell>
        <mxCell id="St-BTR9ovAVdQjKWnuXi-257" value="&lt;font style=&quot;font-size: 13px;&quot;&gt;&lt;b&gt;M&lt;/b&gt;&lt;/font&gt;" style="edgeLabel;html=1;align=center;verticalAlign=middle;resizable=0;points=[];" vertex="1" connectable="0" parent="St-BTR9ovAVdQjKWnuXi-256">
          <mxGeometry x="0.403" relative="1" as="geometry">
            <mxPoint as="offset" />
          </mxGeometry>
        </mxCell>
        <mxCell id="St-BTR9ovAVdQjKWnuXi-258" value="Works In" style="shape=rhombus;perimeter=rhombusPerimeter;whiteSpace=wrap;html=1;align=center;strokeWidth=2;" vertex="1" parent="1">
          <mxGeometry x="230" y="-895" width="80" height="50" as="geometry" />
        </mxCell>
        <mxCell id="St-BTR9ovAVdQjKWnuXi-259" style="edgeStyle=orthogonalEdgeStyle;rounded=0;orthogonalLoop=1;jettySize=auto;html=1;entryX=0;entryY=0.5;entryDx=0;entryDy=0;" edge="1" parent="1" source="St-BTR9ovAVdQjKWnuXi-261" target="St-BTR9ovAVdQjKWnuXi-220">
          <mxGeometry relative="1" as="geometry" />
        </mxCell>
        <mxCell id="St-BTR9ovAVdQjKWnuXi-260" value="&lt;font style=&quot;font-size: 13px;&quot;&gt;&lt;b&gt;M&lt;/b&gt;&lt;/font&gt;" style="edgeLabel;html=1;align=center;verticalAlign=middle;resizable=0;points=[];" vertex="1" connectable="0" parent="St-BTR9ovAVdQjKWnuXi-259">
          <mxGeometry x="0.6621" relative="1" as="geometry">
            <mxPoint as="offset" />
          </mxGeometry>
        </mxCell>
        <mxCell id="St-BTR9ovAVdQjKWnuXi-261" value="Assigned" style="shape=rhombus;perimeter=rhombusPerimeter;whiteSpace=wrap;html=1;align=center;strokeWidth=2;" vertex="1" parent="1">
          <mxGeometry x="-480" y="-665" width="80" height="50" as="geometry" />
        </mxCell>
        <mxCell id="St-BTR9ovAVdQjKWnuXi-262" style="edgeStyle=orthogonalEdgeStyle;rounded=0;orthogonalLoop=1;jettySize=auto;html=1;entryX=0.5;entryY=1;entryDx=0;entryDy=0;" edge="1" parent="1" source="St-BTR9ovAVdQjKWnuXi-261" target="St-BTR9ovAVdQjKWnuXi-213">
          <mxGeometry relative="1" as="geometry">
            <Array as="points">
              <mxPoint x="-440" y="-780" />
              <mxPoint x="-320" y="-780" />
            </Array>
          </mxGeometry>
        </mxCell>
        <mxCell id="St-BTR9ovAVdQjKWnuXi-263" value="&lt;font style=&quot;font-size: 13px;&quot;&gt;&lt;b&gt;N&lt;/b&gt;&lt;/font&gt;" style="edgeLabel;html=1;align=center;verticalAlign=middle;resizable=0;points=[];" vertex="1" connectable="0" parent="St-BTR9ovAVdQjKWnuXi-262">
          <mxGeometry x="0.7751" relative="1" as="geometry">
            <mxPoint as="offset" />
          </mxGeometry>
        </mxCell>
        <mxCell id="St-BTR9ovAVdQjKWnuXi-264" style="edgeStyle=orthogonalEdgeStyle;rounded=0;orthogonalLoop=1;jettySize=auto;html=1;entryX=0;entryY=0;entryDx=0;entryDy=0;endArrow=none;startFill=0;" edge="1" parent="1" source="St-BTR9ovAVdQjKWnuXi-265" target="St-BTR9ovAVdQjKWnuXi-261">
          <mxGeometry relative="1" as="geometry" />
        </mxCell>
        <mxCell id="St-BTR9ovAVdQjKWnuXi-265" value="Passengers" style="ellipse;whiteSpace=wrap;html=1;align=center;strokeWidth=2;" vertex="1" parent="1">
          <mxGeometry x="-530" y="-715" width="70" height="30" as="geometry" />
        </mxCell>
        <mxCell id="St-BTR9ovAVdQjKWnuXi-266" style="edgeStyle=orthogonalEdgeStyle;rounded=0;orthogonalLoop=1;jettySize=auto;html=1;entryX=0;entryY=0.5;entryDx=0;entryDy=0;endArrow=none;startFill=0;" edge="1" parent="1" source="St-BTR9ovAVdQjKWnuXi-267" target="St-BTR9ovAVdQjKWnuXi-261">
          <mxGeometry relative="1" as="geometry" />
        </mxCell>
        <mxCell id="St-BTR9ovAVdQjKWnuXi-267" value=" departure date-time" style="ellipse;whiteSpace=wrap;html=1;align=center;strokeWidth=2;" vertex="1" parent="1">
          <mxGeometry x="-650" y="-685" width="130" height="50" as="geometry" />
        </mxCell>
        <mxCell id="St-BTR9ovAVdQjKWnuXi-268" value=" Arrival date-time" style="ellipse;whiteSpace=wrap;html=1;align=center;strokeWidth=2;" vertex="1" parent="1">
          <mxGeometry x="-530" y="-577" width="100" height="35" as="geometry" />
        </mxCell>
        <mxCell id="St-BTR9ovAVdQjKWnuXi-269" style="edgeStyle=orthogonalEdgeStyle;rounded=0;orthogonalLoop=1;jettySize=auto;html=1;entryX=0.5;entryY=1;entryDx=0;entryDy=0;endArrow=none;startFill=0;" edge="1" parent="1" source="St-BTR9ovAVdQjKWnuXi-268" target="St-BTR9ovAVdQjKWnuXi-261">
          <mxGeometry relative="1" as="geometry" />
        </mxCell>
        <mxCell id="St-BTR9ovAVdQjKWnuXi-270" style="edgeStyle=orthogonalEdgeStyle;rounded=0;orthogonalLoop=1;jettySize=auto;html=1;entryX=0;entryY=1;entryDx=0;entryDy=0;endArrow=none;startFill=0;" edge="1" parent="1" source="St-BTR9ovAVdQjKWnuXi-271" target="St-BTR9ovAVdQjKWnuXi-261">
          <mxGeometry relative="1" as="geometry" />
        </mxCell>
        <mxCell id="St-BTR9ovAVdQjKWnuXi-271" value="Spent-Time" style="ellipse;whiteSpace=wrap;html=1;align=center;strokeWidth=2;" vertex="1" parent="1">
          <mxGeometry x="-590" y="-620" width="80" height="30" as="geometry" />
        </mxCell>
        <mxCell id="St-BTR9ovAVdQjKWnuXi-272" style="edgeStyle=orthogonalEdgeStyle;rounded=0;orthogonalLoop=1;jettySize=auto;html=1;entryX=0;entryY=0.5;entryDx=0;entryDy=0;exitX=1;exitY=0.5;exitDx=0;exitDy=0;" edge="1" parent="1" source="St-BTR9ovAVdQjKWnuXi-276" target="St-BTR9ovAVdQjKWnuXi-213">
          <mxGeometry relative="1" as="geometry">
            <mxPoint x="-460" y="-870" as="sourcePoint" />
          </mxGeometry>
        </mxCell>
        <mxCell id="St-BTR9ovAVdQjKWnuXi-273" value="&lt;font style=&quot;font-size: 13px;&quot;&gt;&lt;b&gt;1&lt;/b&gt;&lt;/font&gt;" style="edgeLabel;html=1;align=center;verticalAlign=middle;resizable=0;points=[];" vertex="1" connectable="0" parent="St-BTR9ovAVdQjKWnuXi-272">
          <mxGeometry x="0.4484" relative="1" as="geometry">
            <mxPoint as="offset" />
          </mxGeometry>
        </mxCell>
        <mxCell id="St-BTR9ovAVdQjKWnuXi-274" style="edgeStyle=orthogonalEdgeStyle;rounded=0;orthogonalLoop=1;jettySize=auto;html=1;entryX=1;entryY=0.5;entryDx=0;entryDy=0;exitX=0;exitY=0.5;exitDx=0;exitDy=0;shape=link;" edge="1" parent="1" source="St-BTR9ovAVdQjKWnuXi-276" target="St-BTR9ovAVdQjKWnuXi-231">
          <mxGeometry relative="1" as="geometry">
            <mxPoint x="-540" y="-870" as="sourcePoint" />
          </mxGeometry>
        </mxCell>
        <mxCell id="St-BTR9ovAVdQjKWnuXi-275" value="&lt;font style=&quot;font-size: 13px;&quot;&gt;&lt;b&gt;1&lt;/b&gt;&lt;/font&gt;" style="edgeLabel;html=1;align=center;verticalAlign=middle;resizable=0;points=[];" vertex="1" connectable="0" parent="St-BTR9ovAVdQjKWnuXi-274">
          <mxGeometry x="0.4735" y="-1" relative="1" as="geometry">
            <mxPoint as="offset" />
          </mxGeometry>
        </mxCell>
        <mxCell id="St-BTR9ovAVdQjKWnuXi-276" value="Own" style="shape=rhombus;double=1;perimeter=rhombusPerimeter;whiteSpace=wrap;html=1;align=center;" vertex="1" parent="1">
          <mxGeometry x="-540" y="-890" width="70" height="40" as="geometry" />
        </mxCell>
        <mxCell id="St-BTR9ovAVdQjKWnuXi-277" style="edgeStyle=orthogonalEdgeStyle;rounded=0;orthogonalLoop=1;jettySize=auto;html=1;entryX=0;entryY=0.5;entryDx=0;entryDy=0;shape=link;" edge="1" parent="1" source="St-BTR9ovAVdQjKWnuXi-279" target="St-BTR9ovAVdQjKWnuXi-248">
          <mxGeometry relative="1" as="geometry" />
        </mxCell>
        <mxCell id="St-BTR9ovAVdQjKWnuXi-278" value="&lt;font style=&quot;font-size: 13px;&quot;&gt;&lt;b&gt;M&lt;/b&gt;&lt;/font&gt;" style="edgeLabel;html=1;align=center;verticalAlign=middle;resizable=0;points=[];" vertex="1" connectable="0" parent="St-BTR9ovAVdQjKWnuXi-277">
          <mxGeometry x="0.44" relative="1" as="geometry">
            <mxPoint as="offset" />
          </mxGeometry>
        </mxCell>
        <mxCell id="St-BTR9ovAVdQjKWnuXi-279" value="Record" style="shape=rhombus;perimeter=rhombusPerimeter;whiteSpace=wrap;html=1;align=center;strokeWidth=2;" vertex="1" parent="1">
          <mxGeometry x="230" y="-685" width="80" height="50" as="geometry" />
        </mxCell>
        <mxCell id="St-BTR9ovAVdQjKWnuXi-280" style="edgeStyle=orthogonalEdgeStyle;rounded=0;orthogonalLoop=1;jettySize=auto;html=1;entryX=0.835;entryY=1.024;entryDx=0;entryDy=0;entryPerimeter=0;shape=link;" edge="1" parent="1" source="St-BTR9ovAVdQjKWnuXi-279" target="St-BTR9ovAVdQjKWnuXi-182">
          <mxGeometry relative="1" as="geometry" />
        </mxCell>
        <mxCell id="St-BTR9ovAVdQjKWnuXi-281" value="&lt;font style=&quot;font-size: 13px;&quot;&gt;&lt;b&gt;1&lt;/b&gt;&lt;/font&gt;" style="edgeLabel;html=1;align=center;verticalAlign=middle;resizable=0;points=[];" vertex="1" connectable="0" parent="St-BTR9ovAVdQjKWnuXi-280">
          <mxGeometry x="0.8549" relative="1" as="geometry">
            <mxPoint as="offset" />
          </mxGeometry>
        </mxCell>
        <mxCell id="St-BTR9ovAVdQjKWnuXi-282" value="Qualifications" style="ellipse;shape=doubleEllipse;margin=3;whiteSpace=wrap;html=1;align=center;" vertex="1" parent="1">
          <mxGeometry x="575" y="-965" width="100" height="40" as="geometry" />
        </mxCell>
      </root>
    </mxGraphModel>
  </diagram>
</mxfile>
